<?xml version="1.0" encoding="UTF-8"?>
<svg version="1.1" xmlns="http://www.w3.org/2000/svg" width="512" height="512">
<path d="M0 0 C0.65170794 -0.00495952 1.30341589 -0.00991903 1.97487256 -0.01502883 C4.16198027 -0.02799795 6.34847876 -0.01959651 8.53560162 -0.01129913 C10.1181431 -0.01618744 11.70068101 -0.02237697 13.28321284 -0.02975702 C17.63472903 -0.04618756 21.98606442 -0.04383229 26.33760083 -0.03838205 C31.02962073 -0.03571566 35.72159201 -0.05023635 40.41359234 -0.06247711 C49.60718181 -0.08355037 58.80070824 -0.08807086 67.994319 -0.08628923 C75.46648903 -0.08498247 82.93863937 -0.08878133 90.4108057 -0.09621429 C92.56179434 -0.09831346 94.71278298 -0.10041106 96.86377162 -0.10250711 C97.93433008 -0.10355064 99.00488855 -0.10459417 100.10788818 -0.10566932 C120.36371648 -0.12457959 140.61950857 -0.12351918 160.87534203 -0.11669999 C179.40920784 -0.11112484 197.94293539 -0.13194739 216.47676889 -0.16506046 C235.50186651 -0.19878769 254.52689789 -0.21396694 273.55202597 -0.20934343 C284.23533125 -0.20709765 294.91850876 -0.21235774 305.60178852 -0.23723602 C314.69751953 -0.25823672 323.79305274 -0.26185343 332.88879184 -0.24293643 C337.52983583 -0.23377073 342.17051092 -0.23266102 346.8115263 -0.25329208 C351.06116573 -0.2719744 355.31013343 -0.2675297 359.55974706 -0.24474627 C361.09606991 -0.24055352 362.63244398 -0.24478329 364.16871271 -0.25834221 C379.15693234 -0.38160434 379.15693234 -0.38160434 385.41003704 5.38311005 C387.28943157 7.51348114 387.28943157 7.51348114 388.54284954 9.65654755 C389.03132366 10.46914032 389.51979778 11.28173309 390.02307415 12.11894989 C390.5220219 12.98987274 391.02096966 13.86079559 391.53503704 14.75811005 C392.35790203 16.13990448 392.35790203 16.13990448 393.19739056 17.54961395 C394.35897697 19.5004476 395.51355371 21.45547009 396.66150188 23.41436005 C398.93359495 27.27203271 401.26717485 31.09037658 403.60412884 34.90898895 C405.36063178 37.77950979 407.10907753 40.65479291 408.85534954 43.53154755 C411.87163087 48.49865759 414.89464596 53.4616313 417.91931438 58.42363739 C420.22873017 62.21388084 422.53494112 66.00606386 424.83972454 69.79912567 C425.85204253 71.46491758 426.86501388 73.1303127 427.87878704 74.79521942 C429.1631303 76.90599379 430.44356007 79.01908116 431.72253704 81.13311005 C432.08967815 81.73510223 432.45681927 82.33709442 432.83508587 82.9573288 C435.44914168 87.29389369 436.53431757 90.44543617 436.55530071 95.49028778 C436.56487049 97.05353035 436.56487049 97.05353035 436.5746336 98.64835358 C436.57630283 100.34043694 436.57630283 100.34043694 436.57800579 102.0667038 C436.58133419 103.2325853 436.58466259 104.3984668 436.58809185 105.59967804 C436.59316093 108.07362727 436.59550018 110.54758336 436.59533978 113.02153778 C436.59751028 116.77434143 436.615622 120.52684343 436.63464642 124.27959442 C436.63758368 126.68779655 436.63956624 129.09600006 436.64050579 131.5042038 C436.64769131 132.61404129 436.65487682 133.72387878 436.66228008 134.86734772 C436.62123633 149.1487584 434.54648523 161.73983945 424.41003704 172.38311005 C423.54665879 172.94012478 422.68328054 173.49713951 421.79373932 174.07103348 C419.09131897 176.69225125 418.8134895 178.11912347 418.73845738 181.81998086 C418.74913064 182.53982777 418.7598039 183.25967469 418.77080059 184.00133514 C418.76244491 184.77246069 418.75408924 185.54358623 418.74548036 186.33807921 C418.72351807 188.92418595 418.73716652 191.50887701 418.75061321 194.09502411 C418.74216215 195.9478183 418.73151904 197.80060361 418.71884441 199.65337372 C418.69064385 204.68615758 418.69317928 209.71851603 418.70113826 214.75135517 C418.70425844 220.00983563 418.6792433 225.26817944 418.65718365 230.5266037 C418.61969497 240.48546482 418.6075928 250.44418937 418.60455924 260.40311408 C418.59987365 271.74042107 418.56696635 283.07759081 418.53166139 294.41483736 C418.45966647 317.73757828 418.42320046 341.06026698 418.41003704 364.38311005 C419.03085659 364.44097687 419.65167614 364.49884369 420.2913084 364.55846405 C421.10416805 364.64013824 421.9170277 364.72181244 422.75451946 364.80596161 C423.96418629 364.92369934 423.96418629 364.92369934 425.19829082 365.04381561 C430.54295275 365.86371711 434.25246706 370.13415296 437.78503704 373.94561005 C442.28078119 380.68922628 442.10725004 387.49924003 441.41003704 395.38311005 C439.72918122 402.04270338 434.94625382 406.56858452 429.41003704 410.38311005 C425.09690785 412.56098878 421.0856855 412.6662731 416.35204124 412.64037895 C415.54162617 412.64388503 414.7312111 412.6473911 413.896238 412.65100342 C411.16938045 412.66033799 408.4427355 412.6553888 405.71586895 412.65053558 C403.74559887 412.6542708 401.77533026 412.65887181 399.80506402 412.66426623 C394.38183648 412.67652745 388.95867047 412.67623209 383.53543222 412.67387748 C377.69004032 412.6734701 371.84466836 412.68450088 365.9992857 412.69399261 C354.54374098 412.71062061 343.08821684 412.71610297 331.63266107 412.71721737 C322.32315777 412.71816698 313.01366128 412.72227288 303.70415974 412.72861862 C301.02517472 412.73041369 298.3461897 412.73219332 295.66720468 412.73396838 C295.001215 412.73441047 294.33522533 412.73485257 293.64905415 412.73530806 C274.91386833 412.74761787 256.17868483 412.75550905 237.4434948 412.75462151 C236.73701942 412.75459035 236.03054404 412.75455919 235.30266032 412.75452709 C231.7218876 412.75436087 228.14111488 412.75416279 224.56034216 412.75395767 C223.49359633 412.75389784 223.49359633 412.75389784 222.40530009 412.75383679 C220.96715311 412.75375592 219.52900614 412.75367232 218.09085917 412.75358601 C195.71472255 412.75236045 173.33864655 412.767374 150.96252728 412.79473114 C125.82739353 412.82544874 100.6922996 412.84266383 75.55714589 412.8408047 C62.24697135 412.84006336 48.93686093 412.84566374 35.62670231 412.8671608 C24.29487847 412.88534506 12.96315396 412.88974258 1.63132187 412.87614195 C-4.15190948 412.86959846 -9.93495012 412.869545 -15.71816349 412.88684845 C-21.01132608 412.90252299 -26.30414583 412.89977301 -31.59729978 412.88228019 C-33.51316305 412.8791979 -35.42905156 412.88288868 -37.34488509 412.89400034 C-39.94848692 412.90810202 -42.55088295 412.8975508 -45.15444374 412.88088799 C-45.89887552 412.89082434 -46.64330729 412.9007607 -47.4102976 412.91099817 C-53.8505047 412.82381341 -58.98403601 410.66670109 -63.83215046 406.4182663 C-64.37097858 405.76728973 -64.90980671 405.11631317 -65.46496296 404.44561005 C-66.01925983 403.79721161 -66.57355671 403.14881317 -67.14465046 402.4807663 C-71.62408393 395.97953448 -71.26460024 389.01170088 -70.58996296 381.38311005 C-68.8853367 374.62933765 -64.08804129 370.36067774 -58.58996296 366.38311005 C-54.78110718 364.29730807 -51.88018131 364.33021694 -47.58996296 364.38311005 C-47.59884541 363.21435333 -47.60772785 362.04559662 -47.61687946 360.84142303 C-47.69791354 349.83504687 -47.75790355 338.82873111 -47.79721165 327.82212448 C-47.81809965 322.16329022 -47.84643978 316.50469649 -47.89172077 310.84600067 C-47.93513472 305.38655224 -47.95909093 299.92733537 -47.96947193 294.46772766 C-47.97687127 292.38326369 -47.9913202 290.2988126 -48.01288319 288.21444702 C-48.0418577 285.29805718 -48.04592142 282.38262812 -48.04406452 279.46611786 C-48.05844563 278.60152954 -48.07282673 277.73694122 -48.08764362 276.84615326 C-48.06098447 272.98482416 -48.04647766 271.01986337 -45.74908161 267.81542206 C-43.58996296 266.38311005 -43.58996296 266.38311005 -40.58996296 266.38311005 C-40.58996296 259.78311005 -40.58996296 253.18311005 -40.58996296 246.38311005 C-41.90996296 246.05311005 -43.22996296 245.72311005 -44.58996296 245.38311005 C-46.31988239 244.21460724 -46.31988239 244.21460724 -47.58996296 242.38311005 C-47.94158649 239.55710602 -47.94158649 239.55710602 -47.91125202 236.07915497 C-47.90845234 234.77737808 -47.90565266 233.4756012 -47.90276814 232.13437653 C-47.89070206 231.09091851 -47.89070206 231.09091851 -47.87839222 230.02638054 C-47.85538225 227.84406907 -47.85426979 225.66276959 -47.85967731 223.48035431 C-47.87234815 217.27637887 -47.85543861 211.07293768 -47.79943562 204.86919403 C-47.76670753 201.07225614 -47.76806272 197.27656446 -47.79045582 193.47957039 C-47.7922001 192.03591173 -47.78098866 190.592175 -47.75635242 189.14872551 C-47.34921981 181.28387001 -47.34921981 181.28387001 -50.12626362 174.22566986 C-51.87624956 172.73487216 -53.64052148 171.58925543 -55.58996296 170.38311005 C-57.73449421 167.60186005 -57.73449421 167.60186005 -59.40246296 164.88311005 C-59.96578327 163.98592255 -60.52910358 163.08873505 -61.10949421 162.16436005 C-67.58192852 150.00506392 -65.9074212 134.66388019 -65.99499226 121.29204559 C-66.01659376 118.81631795 -66.05072142 116.34066711 -66.09753132 113.86528778 C-66.16489128 110.26021137 -66.19204444 106.65669759 -66.21105671 103.0510788 C-66.23888737 101.96006363 -66.26671803 100.86904846 -66.29539204 99.74497223 C-66.27328212 91.36828418 -63.82587378 85.53623586 -59.58996296 78.38311005 C-59.08792347 77.52839615 -58.58588398 76.67368225 -58.06863117 75.79306793 C-56.67574199 73.4644565 -55.23324317 71.17289222 -53.77746296 68.88311005 C-52.63427379 67.06098459 -51.49241873 65.23802166 -50.35168171 63.41436005 C-49.74630573 62.44756317 -49.14092976 61.4807663 -48.51720905 60.48467255 C-45.36327092 55.40896567 -42.27222792 50.29533781 -39.1791048 45.18245697 C-37.02214994 41.619 -34.8585494 38.05957404 -32.69593525 34.49954987 C-31.01026361 31.72415653 -29.32663786 28.94756504 -27.64660358 26.16875458 C-25.88451062 23.25684489 -24.11349212 20.3505641 -22.33996296 17.44561005 C-21.82756062 16.59418427 -21.31515827 15.74275848 -20.78722858 14.86553192 C-15.62867525 6.45619465 -10.46888125 0.01417669 0 0 Z " fill="#020101" transform="translate(70.58996295928955,49.61688995361328)"/>
<path d="M0 0 C2.82406634 1.28699352 4.84169633 2.65985399 7.0625 4.8125 C15.74445698 12.23593801 24.4716496 14.01767626 35.6171875 13.4765625 C46.24777149 12.56432179 53.6771845 7.45225921 61 0 C63.85760908 1.30456066 65.96323951 2.73254963 68.25 4.875 C77.09161587 12.6685795 86.51915039 13.67035999 97.89404297 13.17919922 C105.99616938 12.48977645 113.1421246 8.50552199 119 3 C119.66 2.01 120.32 1.02 121 0 C124.13494337 1.42305295 126.54932258 3.1741161 129.1875 5.375 C139.23193098 13.13513297 148.48657331 14.54855076 161 13 C169.6884244 10.90512434 175.81166435 6.29772542 182 0 C184.85760908 1.30456066 186.96323951 2.73254963 189.25 4.875 C198.36323619 12.90800345 208.15075379 13.65977478 219.84765625 13.17480469 C227.60679116 12.54463901 233.20428712 8.47682011 238.9921875 3.5859375 C240.92214324 2.06149775 242.76649277 1.01158848 245 0 C245.639375 0.70125 246.27875 1.4025 246.9375 2.125 C253.72378838 8.89200915 261.35872208 13.17792195 271.06518555 13.37988281 C272.1466687 13.37746582 272.1466687 13.37746582 273.25 13.375 C274.37498901 13.37258301 274.37498901 13.37258301 275.52270508 13.37011719 C285.62548882 13.14771858 293.57557877 9.23205509 300.875 2.25 C301.57625 1.5075 302.2775 0.765 303 0 C306.13494337 1.42305295 308.54932258 3.1741161 311.1875 5.375 C321.23193098 13.13513297 330.48657331 14.54855076 343 13 C351.6884244 10.90512434 357.81166435 6.29772542 364 0 C366.85760908 1.30456066 368.96323951 2.73254963 371.25 4.875 C380.43486002 12.97113739 388.49826677 13.16655112 401 14 C401 74.39 401 134.78 401 197 C390.44 197 379.88 197 369 197 C368.99589111 192.52824219 368.99178223 188.05648437 368.98754883 183.44921875 C368.97035401 168.67703071 368.92610838 153.90501529 368.86790943 139.13293457 C368.833283 130.17632331 368.80790699 121.21986559 368.80444336 112.26318359 C368.80140019 104.45486874 368.78086244 96.64682749 368.73947543 88.83861828 C368.71817555 84.70564539 368.70552918 80.57306118 368.71384621 76.44003296 C368.72140565 72.54593741 368.70548791 68.65262813 368.67193985 64.75867653 C368.6637292 63.33333465 368.66392999 61.90791424 368.67340279 60.48258018 C368.79298557 50.34639147 368.79298557 50.34639147 364.45289898 41.46610355 C360.29059181 37.26596753 356.0563056 36.65370798 350.41822815 36.58230591 C349.57960739 36.58680756 348.74098663 36.5913092 347.87695312 36.59594727 C346.97863266 36.58908401 346.08031219 36.58222076 345.1547699 36.57514954 C342.19676741 36.55690575 339.23929646 36.56071519 336.28125 36.56640625 C334.21911446 36.5618437 332.15698044 36.5565379 330.09484863 36.55052185 C325.77752496 36.5415958 321.46038633 36.54400865 317.14306641 36.55395508 C311.61480299 36.56545131 306.0871777 36.5452204 300.55899811 36.51603794 C296.30214391 36.49768017 292.04544281 36.49796746 287.78855896 36.50367546 C285.75043339 36.50382869 283.71229745 36.49778323 281.67420959 36.48538399 C278.82341603 36.47048185 275.97380384 36.48114502 273.12304688 36.49829102 C272.28442612 36.48862305 271.44580536 36.47895508 270.58177185 36.46899414 C265.26132392 36.5358941 262.14796991 37.37236857 258 41 C254.68387267 45.26422054 253.499078 48.02521726 253.48101807 53.41610718 C253.46710526 54.68647827 253.45319244 55.95684937 253.43885803 57.26571655 C253.44357036 58.66070686 253.44866423 60.05569592 253.45410156 61.45068359 C253.44536131 62.92939336 253.43487395 64.40809368 253.42277527 65.88677979 C253.3949496 69.89050451 253.39150981 73.89392011 253.39249516 77.89772749 C253.38936308 82.08582934 253.36373876 86.27379256 253.34051514 90.46182251 C253.29997409 98.38771435 253.2796189 106.31352396 253.26654124 114.2395035 C253.25066476 123.26493762 253.21224642 132.29023193 253.17194796 141.3155849 C253.08957497 159.87701238 253.03546663 178.43842661 253 197 C251.93040039 197.0093457 250.86080078 197.01869141 249.75878906 197.02832031 C245.7850603 197.06823512 241.81210456 197.13399721 237.83886719 197.20751953 C236.12021831 197.23572067 234.40143995 197.25693954 232.68261719 197.27099609 C230.20961253 197.29243833 227.73816325 197.33909156 225.265625 197.390625 C224.11540863 197.39246796 224.11540863 197.39246796 222.94195557 197.39434814 C219.44042353 197.49018532 217.35403201 197.74594608 214.47558594 199.81152344 C212.64688133 202.06158425 212.64688133 202.06158425 213.125 205.625 C213.70740714 209.04542055 213.70740714 209.04542055 216 211 C218.64680762 211.19889649 221.18947036 211.27192663 223.83760071 211.25828552 C224.65657575 211.26196123 225.4755508 211.26563693 226.31934327 211.26942402 C229.07925015 211.27944951 231.83895735 211.27524422 234.59887695 211.27124023 C236.57133195 211.27562471 238.54378508 211.28092585 240.51623535 211.28707886 C244.77183987 211.29860236 249.02739443 211.30404 253.2830143 211.30496025 C260.00978274 211.3068961 266.73644749 211.32492288 273.46318054 211.34571838 C290.17452147 211.39497629 306.88589068 211.42579759 323.59729004 211.44702148 C336.57666732 211.46353243 349.55595619 211.48631928 362.53527421 211.53004223 C369.22424132 211.55185514 375.91304065 211.55987298 382.60204089 211.55764949 C386.76286306 211.55931427 390.92357541 211.57335105 395.08435822 211.59086227 C397.01570781 211.59646983 398.9470801 211.59693963 400.87843132 211.59192467 C403.51302246 211.58580038 406.14691784 211.59798402 408.78144836 211.61473083 C409.54760053 211.60851902 410.31375269 211.6023072 411.10312158 211.59590715 C415.57705477 211.64780531 418.45961428 212.21070536 422 215 C424.34168764 218.51253146 424.49623677 219.86469356 424 224 C421.84909549 227.33761045 420.79587201 228.73470933 417 230 C414.43106902 230.09806553 411.88932452 230.13935008 409.32027626 230.13422108 C408.52646545 230.13657331 407.73265464 230.13892554 406.91478896 230.14134905 C404.23245522 230.14805054 401.55016979 230.14758048 398.86782837 230.14717102 C396.93427054 230.15046891 395.0007134 230.15419432 393.06715715 230.1583125 C387.73624911 230.1683488 382.40535234 230.1720519 377.07443619 230.17470181 C371.33200347 230.17859994 365.58957972 230.18817849 359.84715271 230.19691467 C345.97210278 230.21669113 332.0970521 230.22674597 318.2219916 230.23564246 C311.69356047 230.24002269 305.16513016 230.24539012 298.63669968 230.25063133 C276.94535029 230.26764341 255.25400185 230.2821642 233.56264687 230.28938007 C232.1596706 230.28985483 230.75669433 230.29033072 229.35371806 230.29080774 C228.65795894 230.29104411 227.96219982 230.29128049 227.24535709 230.29152403 C223.72021201 230.29272524 220.19506694 230.29394069 216.66992188 230.29516602 C215.97034311 230.29540617 215.27076434 230.29564632 214.54998621 230.29589374 C191.85761063 230.30379024 169.16528725 230.32722979 146.47293447 230.35972196 C122.49024985 230.39399913 98.50759713 230.41372802 74.52488744 230.41702431 C61.44783922 230.41919309 48.37086776 230.4279955 35.29384232 230.45348549 C24.16098104 230.4751354 13.02821515 230.48327107 1.89533521 230.47351871 C-3.78827751 230.46895765 -9.47169316 230.47096476 -15.15527916 230.49028015 C-20.35398898 230.50779578 -25.55235627 230.50700912 -30.75106914 230.49138286 C-32.63598606 230.48898907 -34.52092598 230.49342111 -36.40580754 230.50521151 C-38.96049138 230.52020724 -41.51394207 230.51074435 -44.06859398 230.49498463 C-44.80703938 230.50520683 -45.54548478 230.51542904 -46.30630732 230.52596101 C-51.14000388 230.46050503 -53.60800325 229.43676249 -57 226 C-58.42662219 223.14675563 -58.31033868 221.16545451 -58 218 C-56.20006226 215.30009338 -54.916227 213.4581135 -52 212 C-48.89705497 211.90028907 -45.81633503 211.86280272 -42.71304321 211.86869812 C-41.73818761 211.86658241 -40.76333201 211.86446669 -39.75893533 211.86228687 C-36.47160335 211.856265 -33.18430951 211.85728857 -29.89697266 211.8581543 C-27.5485172 211.85512428 -25.20006232 211.85160327 -22.85160828 211.84762573 C-17.7840633 211.83972475 -12.71652541 211.83458734 -7.64897537 211.83133507 C0.35867973 211.82543791 8.36629845 211.80895056 16.37393188 211.78999329 C19.11228745 211.78363631 21.85064313 211.77732792 24.58899879 211.77101612 C25.27337487 211.76943236 25.95775095 211.7678486 26.66286569 211.76621684 C34.45623031 211.74827399 42.24959795 211.73205044 50.04296875 211.71704102 C51.11183378 211.71497721 51.11183378 211.71497721 52.20229204 211.71287171 C63.75191008 211.69093776 75.30151716 211.6801847 86.85115235 211.67267027 C98.70285432 211.66460373 110.55446217 211.64132846 122.40611041 211.6047166 C129.0629063 211.58465093 135.71956273 211.57256706 142.37638474 211.57755089 C148.63578577 211.58217999 154.89487326 211.56848711 161.15421104 211.54053879 C163.45525394 211.53359763 165.75632906 211.53353161 168.05737114 211.54073906 C171.1916504 211.54956705 174.32488211 211.53403147 177.45907593 211.51225281 C178.83445748 211.52491661 178.83445748 211.52491661 180.23762453 211.53783625 C185.24027246 211.48158895 185.24027246 211.48158895 189.600214 209.1945467 C191.33242702 206.9243181 191.33242702 206.9243181 190.9375 203.375 C190.3249155 199.74483076 190.3249155 199.74483076 187 198 C184.03974173 197.79804541 181.17253601 197.71482659 178.21125793 197.7215271 C176.84759009 197.7128385 176.84759009 197.7128385 175.45637339 197.70397437 C172.39771928 197.68691408 169.3392155 197.68409268 166.28051758 197.68115234 C164.09290698 197.67185833 161.90529994 197.66169046 159.71769714 197.65071106 C153.7676589 197.62333762 147.81764443 197.60823992 141.86755967 197.59528303 C135.65351515 197.57968456 129.43951942 197.55288393 123.22550964 197.5272522 C112.7920378 197.48573326 102.35856184 197.45115544 91.92504883 197.421875 C81.17795905 197.39169558 70.43089593 197.35734813 59.68383789 197.31738281 C59.02151304 197.31492126 58.3591882 197.31245972 57.6767929 197.30992357 C54.35414072 197.29754909 51.03148888 197.28508806 47.70883715 197.27259517 C20.13926099 197.16918865 -7.43034657 197.07995666 -35 197 C-35.00364563 195.82902267 -35.00729126 194.65804535 -35.01104736 193.45158386 C-35.04794769 182.42995857 -35.10566577 171.40861396 -35.18390274 160.38720226 C-35.22345504 154.72060657 -35.25560544 149.05416809 -35.27099609 143.38745117 C-35.28611164 137.92133962 -35.32046612 132.45566005 -35.36830902 126.98974037 C-35.3831756 124.90173402 -35.39104402 122.81366602 -35.39188385 120.72560692 C-35.39423941 117.80642717 -35.42120473 114.88845505 -35.45410156 111.96948242 C-35.4490712 111.10129883 -35.44404083 110.23311523 -35.43885803 109.33862305 C-35.4547695 104.74203559 -35.4547695 104.74203559 -37.84661865 101.00190735 C-40.10232697 99.90284353 -40.10232697 99.90284353 -43 99 C-43 92.4 -43 85.8 -43 79 C-41.02 78.01 -39.04 77.02 -37 76 C-35.66669971 73.33339943 -35.83840541 71.25111257 -35.79467773 68.26513672 C-35.77473251 67.06404266 -35.75478729 65.86294861 -35.73423767 64.62545776 C-35.71752518 63.32335358 -35.70081268 62.02124939 -35.68359375 60.6796875 C-35.66302375 59.33732462 -35.64202727 57.99496821 -35.62062073 56.65261841 C-35.56540469 53.11811562 -35.51599342 49.58355443 -35.46777344 46.0489502 C-35.41755496 42.44273678 -35.36187071 38.83660828 -35.30664062 35.23046875 C-35.19906483 28.15371951 -35.09761858 21.07689416 -35 14 C-34.06333496 13.95246582 -33.12666992 13.90493164 -32.16162109 13.85595703 C-30.91977051 13.78231934 -29.67791992 13.70868164 -28.3984375 13.6328125 C-26.56031494 13.53057373 -26.56031494 13.53057373 -24.68505859 13.42626953 C-15.07049105 12.31410344 -7.67663054 7.80467551 -1 1 C-0.67 0.67 -0.34 0.34 0 0 Z " fill="#D6E4E8" transform="translate(73,217)"/>
<path d="M0 0 C0.89519112 -0.0055344 1.79038224 -0.01106879 2.71270037 -0.0167709 C5.70682217 -0.03036412 8.70010848 -0.01541524 11.69421387 -0.00050354 C13.8429754 -0.00428719 15.9917345 -0.00978761 18.14048767 -0.01687622 C23.97309751 -0.03084197 29.80541272 -0.01965298 35.63800621 -0.00316501 C41.74109506 0.01068186 47.84416674 0.00422582 53.94726562 0.0007019 C64.19645945 -0.0020005 74.44553618 0.01147806 84.69470215 0.03465271 C96.5451594 0.06126256 108.39542088 0.06300961 120.24589777 0.05126435 C131.64438031 0.04048616 143.04279201 0.04667399 154.44126892 0.06081963 C159.29281793 0.06657904 164.14431509 0.06649707 168.99586487 0.06175423 C174.70864794 0.05698289 180.42121654 0.06709287 186.13395882 0.08870888 C188.23098591 0.09427474 190.32803363 0.09474389 192.42506218 0.08975601 C195.28678683 0.08380276 198.1478559 0.09630939 201.00952148 0.11352539 C201.84006939 0.10751535 202.6706173 0.1015053 203.52633333 0.09531313 C209.09710403 0.15628626 213.41794696 1.08643628 217.64929199 5.03636169 C220.63936198 8.94645322 222.12707471 10.99268307 222.14520264 15.87736511 C222.15091278 16.79700043 222.15662292 17.71663574 222.1625061 18.66413879 C222.16418289 20.18208542 222.16418289 20.18208542 222.16589355 21.73069763 C222.17085846 22.79424469 222.17582336 23.85779175 222.18093872 24.9535675 C222.19558781 28.48507832 222.20236741 32.01654419 222.20788574 35.54808044 C222.21363553 37.99707542 222.21939328 40.44607037 222.22515869 42.89506531 C222.23567691 48.03656729 222.24151401 53.17805359 222.24499512 58.31956482 C222.25047741 64.90826193 222.27449654 71.49675213 222.30296707 78.08538437 C222.32159129 83.14686182 222.32679897 88.20828945 222.32833099 93.26979828 C222.33135921 95.69867838 222.33939339 98.12755757 222.35251617 100.55640411 C222.36956949 103.95580768 222.36769773 107.35470615 222.36120605 110.75413513 C222.37042084 111.75800262 222.37963562 112.76187012 222.38912964 113.79615784 C222.35295533 119.84289275 221.79082915 124.44024495 217.53991699 129.11058044 C211.5734369 133.73183293 207.92133308 134.7974887 200.37738037 134.77536011 C199.49755989 134.78059679 198.61773941 134.78583346 197.7112577 134.79122883 C194.7572885 134.80625419 191.80349213 134.80693454 188.8494873 134.80760193 C186.7338227 134.81522177 184.61816087 134.82364896 182.50250244 134.83282471 C176.75031417 134.85479537 170.99817906 134.86357221 165.24595356 134.86865115 C161.65244476 134.87229204 158.05894995 134.87853075 154.46544647 134.88565254 C141.92939135 134.91015708 129.39337765 134.92320087 116.8572998 134.92674255 C105.17159925 134.93037739 93.48616142 134.96026671 81.80054116 135.00214714 C71.76898683 135.03683922 61.7375196 135.05229082 51.70590568 135.05298859 C45.71404714 135.05378184 39.72245605 135.06254287 33.73065948 135.09098625 C28.09334095 135.11714765 22.45651195 135.11938251 16.81916046 135.10333061 C14.75198296 135.10151454 12.68477745 135.10822103 10.61766052 135.12414932 C7.79122025 135.14459782 4.96649466 135.13406514 2.14007568 135.11593628 C1.32566206 135.12913625 0.51124844 135.14233621 -0.32784438 135.15593618 C-6.29180935 135.06880884 -10.38947913 133.30687988 -14.99523926 129.50120544 C-18.42433198 125.10493273 -20.10962499 121.64854155 -20.1491394 116.09417725 C-20.1620401 114.74224022 -20.1620401 114.74224022 -20.17520142 113.36299133 C-20.17946136 112.37646576 -20.18372131 111.38994019 -20.18811035 110.3735199 C-20.20037659 108.81205986 -20.20037659 108.81205986 -20.21289062 107.21905518 C-20.23774109 103.7675382 -20.25426055 100.31606238 -20.26867676 96.86448669 C-20.27400043 95.68570639 -20.27932411 94.50692608 -20.28480911 93.29242516 C-20.31154019 87.05221075 -20.33091458 80.81201633 -20.34533691 74.57176208 C-20.36197732 68.12999751 -20.40675094 61.68874526 -20.45770836 55.24717426 C-20.49138462 50.2911318 -20.50291487 45.33521084 -20.508564 40.37906456 C-20.51527617 38.00483984 -20.5304972 35.63062311 -20.5544548 33.25650978 C-20.58611332 29.92920472 -20.58614128 26.60328012 -20.57873535 23.27586365 C-20.59514069 22.29945923 -20.61154602 21.32305481 -20.62844849 20.31706238 C-20.57082133 13.97559897 -19.43433332 9.2149499 -14.99523926 4.50120544 C-9.9775925 0.29513443 -6.25914863 -0.07238494 0 0 Z " fill="#66D7F4" transform="translate(89.9952392578125,252.49879455566406)"/>
<path d="M0 0 C0.89519112 -0.0055344 1.79038224 -0.01106879 2.71270037 -0.0167709 C5.70682217 -0.03036412 8.70010848 -0.01541524 11.69421387 -0.00050354 C13.8429754 -0.00428719 15.9917345 -0.00978761 18.14048767 -0.01687622 C23.97309751 -0.03084197 29.80541272 -0.01965298 35.63800621 -0.00316501 C41.74109506 0.01068186 47.84416674 0.00422582 53.94726562 0.0007019 C64.19645945 -0.0020005 74.44553618 0.01147806 84.69470215 0.03465271 C96.5451594 0.06126256 108.39542088 0.06300961 120.24589777 0.05126435 C131.64438031 0.04048616 143.04279201 0.04667399 154.44126892 0.06081963 C159.29281793 0.06657904 164.14431509 0.06649707 168.99586487 0.06175423 C174.70864794 0.05698289 180.42121654 0.06709287 186.13395882 0.08870888 C188.23098591 0.09427474 190.32803363 0.09474389 192.42506218 0.08975601 C195.28678683 0.08380276 198.1478559 0.09630939 201.00952148 0.11352539 C201.84006939 0.10751535 202.6706173 0.1015053 203.52633333 0.09531313 C209.09710403 0.15628626 213.41794696 1.08643628 217.64929199 5.03636169 C220.63936198 8.94645322 222.12707471 10.99268307 222.14520264 15.87736511 C222.15091278 16.79700043 222.15662292 17.71663574 222.1625061 18.66413879 C222.16418289 20.18208542 222.16418289 20.18208542 222.16589355 21.73069763 C222.17085846 22.79424469 222.17582336 23.85779175 222.18093872 24.9535675 C222.19558781 28.48507832 222.20236741 32.01654419 222.20788574 35.54808044 C222.21363553 37.99707542 222.21939328 40.44607037 222.22515869 42.89506531 C222.23567691 48.03656729 222.24151401 53.17805359 222.24499512 58.31956482 C222.25047741 64.90826193 222.27449654 71.49675213 222.30296707 78.08538437 C222.32159129 83.14686182 222.32679897 88.20828945 222.32833099 93.26979828 C222.33135921 95.69867838 222.33939339 98.12755757 222.35251617 100.55640411 C222.36956949 103.95580768 222.36769773 107.35470615 222.36120605 110.75413513 C222.37042084 111.75800262 222.37963562 112.76187012 222.38912964 113.79615784 C222.35295533 119.84289275 221.79082915 124.44024495 217.53991699 129.11058044 C211.5734369 133.73183293 207.92133308 134.7974887 200.37738037 134.77536011 C199.49755989 134.78059679 198.61773941 134.78583346 197.7112577 134.79122883 C194.7572885 134.80625419 191.80349213 134.80693454 188.8494873 134.80760193 C186.7338227 134.81522177 184.61816087 134.82364896 182.50250244 134.83282471 C176.75031417 134.85479537 170.99817906 134.86357221 165.24595356 134.86865115 C161.65244476 134.87229204 158.05894995 134.87853075 154.46544647 134.88565254 C141.92939135 134.91015708 129.39337765 134.92320087 116.8572998 134.92674255 C105.17159925 134.93037739 93.48616142 134.96026671 81.80054116 135.00214714 C71.76898683 135.03683922 61.7375196 135.05229082 51.70590568 135.05298859 C45.71404714 135.05378184 39.72245605 135.06254287 33.73065948 135.09098625 C28.09334095 135.11714765 22.45651195 135.11938251 16.81916046 135.10333061 C14.75198296 135.10151454 12.68477745 135.10822103 10.61766052 135.12414932 C7.79122025 135.14459782 4.96649466 135.13406514 2.14007568 135.11593628 C1.32566206 135.12913625 0.51124844 135.14233621 -0.32784438 135.15593618 C-6.29180935 135.06880884 -10.38947913 133.30687988 -14.99523926 129.50120544 C-18.42433198 125.10493273 -20.10962499 121.64854155 -20.1491394 116.09417725 C-20.1620401 114.74224022 -20.1620401 114.74224022 -20.17520142 113.36299133 C-20.17946136 112.37646576 -20.18372131 111.38994019 -20.18811035 110.3735199 C-20.20037659 108.81205986 -20.20037659 108.81205986 -20.21289062 107.21905518 C-20.23774109 103.7675382 -20.25426055 100.31606238 -20.26867676 96.86448669 C-20.27400043 95.68570639 -20.27932411 94.50692608 -20.28480911 93.29242516 C-20.31154019 87.05221075 -20.33091458 80.81201633 -20.34533691 74.57176208 C-20.36197732 68.12999751 -20.40675094 61.68874526 -20.45770836 55.24717426 C-20.49138462 50.2911318 -20.50291487 45.33521084 -20.508564 40.37906456 C-20.51527617 38.00483984 -20.5304972 35.63062311 -20.5544548 33.25650978 C-20.58611332 29.92920472 -20.58614128 26.60328012 -20.57873535 23.27586365 C-20.59514069 22.29945923 -20.61154602 21.32305481 -20.62844849 20.31706238 C-20.57082133 13.97559897 -19.43433332 9.2149499 -14.99523926 4.50120544 C-9.9775925 0.29513443 -6.25914863 -0.07238494 0 0 Z M-4.99523926 16.50120544 C-5.09593705 19.66196888 -5.13137949 22.80092572 -5.12463379 25.96214294 C-5.12638611 26.95554687 -5.12813843 27.94895081 -5.12994385 28.97245789 C-5.13436436 32.27372457 -5.13142367 35.57493817 -5.12805176 38.87620544 C-5.12872474 41.15924591 -5.12969472 43.44228631 -5.13095093 45.72532654 C-5.13242817 50.51716288 -5.13027249 55.30898063 -5.12561035 60.10081482 C-5.11991305 66.25837179 -5.12319192 72.41588518 -5.12918282 78.57344055 C-5.13278771 83.28986441 -5.13165017 88.00627786 -5.12905502 92.72270203 C-5.12838556 94.99382024 -5.12921486 97.26493939 -5.13153458 99.53605652 C-5.13405993 102.70415267 -5.13022216 105.87217717 -5.12463379 109.04026794 C-5.12665802 109.98887695 -5.12868225 110.93748596 -5.13076782 111.9148407 C-5.53979686 116.03309956 -5.53979686 116.03309956 -3.99523926 119.50120544 C-1.29160908 119.60127535 1.38654579 119.63560418 4.09069824 119.62818909 C4.9483931 119.62974908 5.80608795 119.63130907 6.68977356 119.63291633 C9.58645303 119.63693009 12.48308081 119.63373524 15.37976074 119.63059998 C17.44722525 119.63195385 19.51468952 119.6337337 21.58215332 119.63591003 C27.21421902 119.64048601 32.84626649 119.63869413 38.47833252 119.63553095 C44.3582362 119.63300819 50.23813826 119.63534465 56.11804199 119.63691711 C65.99434694 119.63873906 75.87064443 119.63633185 85.74694824 119.63157654 C97.18324888 119.62613387 108.6195317 119.62789651 120.05583191 119.63340294 C129.8553635 119.63793337 139.6548897 119.63858497 149.454422 119.63596427 C155.31576836 119.63440111 161.17710632 119.63420881 167.03845215 119.63750076 C172.5475244 119.64037846 178.05657356 119.63840567 183.56564331 119.63260651 C185.59382082 119.63127836 187.62200025 119.63167394 189.650177 119.63386917 C192.40641913 119.63657854 195.16258599 119.63320218 197.91882324 119.62818909 C198.73232742 119.63041981 199.5458316 119.63265053 200.38398743 119.63494885 C203.99186783 119.96107092 203.99186783 119.96107092 207.00476074 118.50120544 C207.10003111 117.16047728 207.12664844 115.81478041 207.12501526 114.47067261 C207.12638992 113.60264008 207.12776459 112.73460754 207.12918091 111.840271 C207.12558563 110.8807402 207.12199036 109.92120941 207.11828613 108.93260193 C207.11850517 107.42545624 207.11850517 107.42545624 207.11872864 105.88786316 C207.11802904 102.54932027 207.11023448 99.2108324 207.10241699 95.87229919 C207.10055298 93.56444326 207.099129 91.25658694 207.09812927 88.94873047 C207.09430279 82.86102718 207.08447139 76.77334758 207.07342529 70.68565369 C207.06321397 64.47899191 207.05863225 58.27232632 207.05358887 52.06565857 C207.04284924 39.87749709 207.02577126 27.68935324 207.00476074 15.50120544 C179.51104982 15.47787996 152.01734037 15.460228 124.52362156 15.44939327 C111.75878634 15.44422957 98.99395726 15.43718546 86.22912598 15.42576599 C75.10768487 15.41582142 63.98624821 15.40935256 52.86480278 15.40711695 C46.97213977 15.40580946 41.07948947 15.40272117 35.18683052 15.39547539 C29.64740658 15.38871874 24.10800067 15.38658775 18.568573 15.38809776 C16.52910705 15.38782127 14.48964054 15.38581405 12.45017815 15.38199997 C9.67855991 15.37706827 6.90701087 15.37820521 4.13539124 15.38095093 C3.31731399 15.37803809 2.49923674 15.37512524 1.65636927 15.37212414 C-1.96763094 15.03981324 -1.96763094 15.03981324 -4.99523926 16.50120544 Z " fill="#030405" transform="translate(89.9952392578125,252.49879455566406)"/>
<path d="M0 0 C1.28221404 0.00092179 2.56442808 0.00184359 3.88549709 0.00279331 C4.9525859 0.00151167 4.9525859 0.00151167 6.04123205 0.00020415 C8.44275016 -0.00145274 10.84419957 0.00407409 13.24571133 0.00952244 C14.96012273 0.00980429 16.67453425 0.00964661 18.38894558 0.00907993 C23.05816942 0.00879188 27.7273678 0.01468979 32.3965857 0.02165389 C37.27064496 0.02788622 42.14470473 0.02849113 47.01876736 0.0296793 C56.25522398 0.03279297 65.49166884 0.04100685 74.72812027 0.05102879 C85.24063834 0.0621888 95.75315696 0.06770009 106.26567948 0.07272422 C127.89696946 0.08318943 149.52824883 0.10078957 171.15952969 0.12304783 C170.20701331 1.23885023 169.25384893 2.35409947 168.30041409 3.46911716 C167.50432909 4.40078835 167.50432909 4.40078835 166.69216156 5.35128117 C163.31460191 9.25583756 159.70313812 12.9311501 156.09702969 16.62304783 C155.3074789 17.45836033 154.51792812 18.29367283 153.70445156 19.15429783 C152.55106289 20.32992283 152.55106289 20.32992283 151.37437344 21.52929783 C150.68464443 22.24408298 149.99491543 22.95886814 149.28428555 23.69531345 C147.15952969 25.12304783 147.15952969 25.12304783 144.64634609 24.93139744 C143.82569668 24.66464207 143.00504726 24.3978867 142.15952969 24.12304783 C141.48978115 23.91430027 140.82003262 23.70555271 140.12998867 23.49047947 C139.47844814 23.25707859 138.82690762 23.02367771 138.15562344 22.78320408 C111.57173614 13.44804743 85.44366346 13.19079768 59.74937344 25.33789158 C51.0450886 29.60451901 43.52314509 34.82222227 36.15952969 41.12304783 C35.51242031 41.66187595 34.86531094 42.20070408 34.19859219 42.75586033 C31.52746279 45.15109843 30.24552475 46.69307251 29.53452969 50.24804783 C29.99740809 53.18176317 29.99740809 53.18176317 31.72202969 55.56054783 C34.14328086 57.39419483 34.14328086 57.39419483 37.47202969 57.31054783 C41.69971835 55.94908877 42.98983143 54.4573003 45.90562344 51.28711033 C61.6959762 36.12618237 82.80423844 29.64276257 104.25962734 29.619874 C114.25857115 29.85318815 125.1168151 31.60169053 134.15952969 36.12304783 C131.00502189 42.94405159 127.29845854 49.09724229 120.15952969 52.12304783 C113.04261026 53.211056 105.91039138 53.15309388 98.72764492 52.93823338 C98.00825741 52.9229459 97.2888699 52.90765842 96.54768276 52.89190769 C94.55287865 52.84067054 92.55924822 52.74852703 90.56602383 52.65405369 C86.18232167 53.25758639 84.95318118 54.78215834 82.15952969 58.12304783 C81.54923916 58.74904881 80.93894863 59.37504978 80.31016445 60.02002048 C79.74611904 60.60316013 79.18207363 61.18629978 78.60093594 61.78711033 C77.30810623 63.10755898 76.01513472 64.42786881 74.72202969 65.74804783 C74.07943203 66.4157822 73.43683437 67.08351658 72.77476406 67.77148533 C69.0994453 71.50277341 65.92038522 73.83554967 61.15952969 76.12304783 C59.74043287 79.47322068 59.74043287 79.47322068 60.15952969 83.12304783 C62.1672495 85.8626655 63.77256967 87.78268126 67.16514492 88.61523533 C69.44493368 88.83772774 71.68167296 88.91826936 73.97202969 88.93554783 C74.7602914 88.96068455 75.54855312 88.98582127 76.36070156 89.0117197 C78.29311342 89.07027764 80.22637296 89.09960271 82.15952969 89.12304783 C78.15562344 93.90820408 78.15562344 93.90820408 76.15952969 96.12304783 C75.78308315 96.69180637 75.40663662 97.26056492 75.01878262 97.84655857 C72.27823102 101.40164949 70.18811871 102.93916708 65.70788479 103.740098 C61.30737766 104.02614492 56.91240597 103.91068481 52.50718594 103.80664158 C50.8805343 103.79357167 49.25385494 103.78361408 47.62716579 103.77662754 C43.36360846 103.75001042 39.10174355 103.68134673 34.83885098 103.60369968 C30.48178403 103.53185086 26.12444125 103.50007014 21.76695156 103.4648447 C13.23037105 103.38996611 4.6951614 103.27063346 -3.84047031 103.12304783 C-3.86359111 89.84117374 -3.88138405 76.5593044 -3.89228249 63.27741432 C-3.89751189 57.11079862 -3.90461058 50.94419664 -3.91590977 44.77758884 C-3.9267366 38.83188777 -3.93274671 32.88619993 -3.93534756 26.94048977 C-3.93720218 24.6665784 -3.94082348 22.39266779 -3.94620037 20.11876202 C-3.9534081 16.94577663 -3.95446137 13.77284666 -3.9539957 10.59985447 C-3.95759098 9.64967442 -3.96118626 8.69949436 -3.96489048 7.72052097 C-3.95281799 0.1712342 -3.95281799 0.1712342 0 0 Z " fill="#67DAF8" transform="translate(88.84047031402588,267.8769521713257)"/>
<path d="M0 0 C3.24931927 -0.17455021 6.49743448 -0.28091753 9.75 -0.375 C10.67039062 -0.42527344 11.59078125 -0.47554688 12.5390625 -0.52734375 C13.87324219 -0.55634766 13.87324219 -0.55634766 15.234375 -0.5859375 C16.05131836 -0.6173584 16.86826172 -0.6487793 17.70996094 -0.68115234 C20 0 20 0 21.63824558 2.99636555 C23.75676236 6.35533914 23.75676236 6.35533914 27.61731625 6.74552441 C29.10397313 6.77415838 30.59148585 6.76960218 32.07810974 6.73930359 C33.30913558 6.74994369 33.30913558 6.74994369 34.56503063 6.76079875 C37.31938167 6.77738906 40.07167235 6.7512036 42.82592773 6.7253418 C44.79868158 6.72860004 46.77143256 6.7345348 48.74417114 6.74295044 C52.99448132 6.75536979 57.24419914 6.74889378 61.49447441 6.72788048 C68.21309762 6.69486871 74.9312548 6.70410182 81.6499176 6.7191925 C92.27578445 6.73808736 102.90141258 6.72903273 113.52726847 6.70787126 C132.55705598 6.67021072 151.58681015 6.66598158 170.61661488 6.69272357 C177.29728278 6.70082432 183.97766234 6.69218828 190.65829647 6.67016065 C194.81253031 6.65908697 198.96670099 6.66005792 203.12094498 6.6640358 C205.04908872 6.66324838 206.9772383 6.65727248 208.90534782 6.64575768 C211.5354055 6.63068073 214.16483161 6.6339276 216.79490662 6.64164734 C217.55969454 6.63270704 218.32448246 6.62376675 219.11244577 6.61455554 C223.58812035 6.65096267 226.45928475 7.20873657 230 10 C232.34168764 13.51253146 232.49623677 14.86469356 232 19 C229.84909549 22.33761045 228.79587201 23.73470933 225 25 C222.43106902 25.09806553 219.88932452 25.13935008 217.32027626 25.13422108 C216.52646545 25.13657331 215.73265464 25.13892554 214.91478896 25.14134905 C212.23245522 25.14805054 209.55016979 25.14758048 206.86782837 25.14717102 C204.93427054 25.15046891 203.0007134 25.15419432 201.06715715 25.1583125 C195.73624911 25.1683488 190.40535234 25.1720519 185.07443619 25.17470181 C179.33200347 25.17859994 173.58957972 25.18817849 167.84715271 25.19691467 C153.97210278 25.21669113 140.0970521 25.22674597 126.2219916 25.23564246 C119.69356047 25.24002269 113.16513016 25.24539012 106.63669968 25.25063133 C84.94535029 25.26764341 63.25400185 25.2821642 41.56264687 25.28938007 C40.1596706 25.28985483 38.75669433 25.29033072 37.35371806 25.29080774 C36.65795894 25.29104411 35.96219982 25.29128049 35.24535709 25.29152403 C31.72021201 25.29272524 28.19506694 25.29394069 24.66992188 25.29516602 C23.97034311 25.29540617 23.27076434 25.29564632 22.54998621 25.29589374 C-0.14238937 25.30379024 -22.83471275 25.32722979 -45.52706553 25.35972196 C-69.50975015 25.39399913 -93.49240287 25.41372802 -117.47511256 25.41702431 C-130.55216078 25.41919309 -143.62913224 25.4279955 -156.70615768 25.45348549 C-167.83901896 25.4751354 -178.97178485 25.48327107 -190.10466479 25.47351871 C-195.78827751 25.46895765 -201.47169316 25.47096476 -207.15527916 25.49028015 C-212.35398898 25.50779578 -217.55235627 25.50700912 -222.75106914 25.49138286 C-224.63598606 25.48898907 -226.52092598 25.49342111 -228.40580754 25.50521151 C-230.96049138 25.52020724 -233.51394207 25.51074435 -236.06859398 25.49498463 C-236.80703938 25.50520683 -237.54548478 25.51542904 -238.30630732 25.52596101 C-243.14000388 25.46050503 -245.60800325 24.43676249 -249 21 C-250.42662219 18.14675563 -250.31033868 16.16545451 -250 13 C-248.20006226 10.30009338 -246.916227 8.4581135 -244 7 C-240.89705497 6.90028907 -237.81633503 6.86280272 -234.71304321 6.86869812 C-233.73818761 6.86658241 -232.76333201 6.86446669 -231.75893533 6.86228687 C-228.47160335 6.856265 -225.18430951 6.85728857 -221.89697266 6.8581543 C-219.5485172 6.85512428 -217.20006232 6.85160327 -214.85160828 6.84762573 C-209.7840633 6.83972475 -204.71652541 6.83458734 -199.64897537 6.83133507 C-191.64132027 6.82543791 -183.63370155 6.80895056 -175.62606812 6.78999329 C-172.88771255 6.78363631 -170.14935687 6.77732792 -167.41100121 6.77101612 C-166.72662513 6.76943236 -166.04224905 6.7678486 -165.33713431 6.76621684 C-157.54376969 6.74827399 -149.75040205 6.73205044 -141.95703125 6.71704102 C-141.24445456 6.71566514 -140.53187788 6.71428927 -139.79770796 6.71287171 C-128.24808992 6.69093776 -116.69848284 6.6801847 -105.14884765 6.67267027 C-93.29714568 6.66460373 -81.44553783 6.64132846 -69.59388959 6.6047166 C-62.9370937 6.58465093 -56.28043727 6.57256706 -49.62361526 6.57755089 C-43.36421423 6.58217999 -37.10512674 6.56848711 -30.84578896 6.54053879 C-28.54474606 6.53359763 -26.24367094 6.53353161 -23.94262886 6.54073906 C-20.8083496 6.54956705 -17.67511789 6.53403147 -14.54092407 6.51225281 C-13.16554252 6.52491661 -13.16554252 6.52491661 -11.76237547 6.53783625 C-6.74803809 6.51048157 -6.74803809 6.51048157 -2.46619225 4.0929842 C-0.9766469 2.07570925 -0.9766469 2.07570925 0 0 Z " fill="#82ABDD" transform="translate(265,422)"/>
<path d="M0 0 C2.82406634 1.28699352 4.84169633 2.65985399 7.0625 4.8125 C15.74445698 12.23593801 24.4716496 14.01767626 35.6171875 13.4765625 C46.24777149 12.56432179 53.6771845 7.45225921 61 0 C63.85760908 1.30456066 65.96323951 2.73254963 68.25 4.875 C77.09161587 12.6685795 86.51915039 13.67035999 97.89404297 13.17919922 C105.99616938 12.48977645 113.1421246 8.50552199 119 3 C119.66 2.01 120.32 1.02 121 0 C124.13494337 1.42305295 126.54932258 3.1741161 129.1875 5.375 C139.23193098 13.13513297 148.48657331 14.54855076 161 13 C169.6884244 10.90512434 175.81166435 6.29772542 182 0 C184.85760908 1.30456066 186.96323951 2.73254963 189.25 4.875 C198.36323619 12.90800345 208.15075379 13.65977478 219.84765625 13.17480469 C227.60679116 12.54463901 233.20428712 8.47682011 238.9921875 3.5859375 C240.92214324 2.06149775 242.76649277 1.01158848 245 0 C245.639375 0.70125 246.27875 1.4025 246.9375 2.125 C253.72378838 8.89200915 261.35872208 13.17792195 271.06518555 13.37988281 C272.1466687 13.37746582 272.1466687 13.37746582 273.25 13.375 C274.37498901 13.37258301 274.37498901 13.37258301 275.52270508 13.37011719 C285.62548882 13.14771858 293.57557877 9.23205509 300.875 2.25 C301.57625 1.5075 302.2775 0.765 303 0 C306.13494337 1.42305295 308.54932258 3.1741161 311.1875 5.375 C321.23193098 13.13513297 330.48657331 14.54855076 343 13 C351.6884244 10.90512434 357.81166435 6.29772542 364 0 C366.85760908 1.30456066 368.96323951 2.73254963 371.25 4.875 C380.43486002 12.97113739 388.49826677 13.16655112 401 14 C401 74.39 401 134.78 401 197 C395.72 197 390.44 197 385 197 C385 138.92 385 80.84 385 21 C382.69 20.67 380.38 20.34 378 20 C375.015625 18.625 375.015625 18.625 372.25 17 C369.46107198 15.37961724 367.06475297 14.02158432 364 13 C361.73450865 14.10942605 361.73450865 14.10942605 359.375 15.75 C348.88984743 22.32802148 336.17110057 25.04973512 323.94140625 22.31640625 C317.84924239 20.44607314 312.95951436 18.00242317 307.9375 14.07421875 C306.10201826 12.82860026 306.10201826 12.82860026 304.17578125 13.1171875 C300.45781516 14.62573389 296.93908219 16.51109066 293.39648438 18.38476562 C285.8107942 22.29755892 279.37429402 23.39877591 271 23 C270.23300781 22.97035156 269.46601563 22.94070312 268.67578125 22.91015625 C260.26634251 22.30843376 253.59269441 18.69414842 246.82421875 13.85546875 C245.02848559 12.82050296 245.02848559 12.82050296 242.98828125 13.21875 C240.90577986 14.03702167 239.32366369 15.02073822 237.5 16.3125 C226.3722559 23.41443687 215.55001587 24.17886562 202.875 21.8125 C197.69958976 20.62209896 193.44245425 19.02975805 188.96484375 16.18359375 C186.62767026 14.7757139 184.6489919 13.70585695 182 13 C179.54377944 13.9578905 179.54377944 13.9578905 177.25 15.6875 C167.48620718 22.04194466 156.58904184 24.08408692 145 23 C137.71441953 21.37167742 131.81237975 18.66953189 125.9375 14.07421875 C124.06976573 12.80095717 124.06976573 12.80095717 121.96484375 13.1875 C119.92448942 14.03122505 118.3528215 15.02458498 116.5625 16.3125 C106.32715833 22.83279173 94.45936477 24.75293007 82.64453125 22.3046875 C76.09020758 20.4759313 70.73540439 17.96291207 65.21875 13.9765625 C62.99169265 12.71892549 62.99169265 12.71892549 60.48046875 13.68359375 C58.21928083 14.88362577 56.0051932 16.11694744 53.8125 17.4375 C43.3996427 23.21672129 32.48457138 24.78995129 20.72265625 22.30859375 C14.58215822 20.41981765 9.4765482 17.70575861 4.25390625 13.9765625 C2.01257953 12.72808065 2.01257953 12.72808065 -0.41796875 13.6484375 C-1.27003906 14.09445313 -2.12210938 14.54046875 -3 15 C-3.94617188 15.474375 -4.89234375 15.94875 -5.8671875 16.4375 C-6.85976562 16.953125 -7.85234375 17.46875 -8.875 18 C-18.16992412 22.63615437 -22.91779758 23 -34 23 C-34 39.17 -34 55.34 -34 72 C-34.33 72 -34.66 72 -35 72 C-35 52.86 -35 33.72 -35 14 C-30.38 13.67 -25.76 13.34 -21 13 C-12.79279879 10.26426626 -7.03955849 7.15538564 -1 1 C-0.67 0.67 -0.34 0.34 0 0 Z " fill="#C1CFD9" transform="translate(73,217)"/>
<path d="M0 0 C1.1540609 0.00067978 1.1540609 0.00067978 2.33143616 0.00137329 C3.13791595 -0.00198532 3.94439575 -0.00534393 4.77531433 -0.00880432 C7.45492573 -0.01834319 10.13447483 -0.02025889 12.81410217 -0.02133179 C14.66876248 -0.02454232 16.52342252 -0.02790623 18.37808228 -0.03141785 C22.27123095 -0.03741646 26.1643574 -0.039257 30.05751038 -0.03866577 C35.0558952 -0.0385641 40.05413812 -0.05221778 45.05248928 -0.06943798 C48.88452819 -0.08053486 52.71653255 -0.08258569 56.54858589 -0.08205605 C58.39184623 -0.08323961 60.23510736 -0.08768228 62.07835197 -0.09538841 C64.65239894 -0.10514189 67.2261346 -0.1023288 69.80018616 -0.09628296 C70.56753586 -0.10190247 71.33488556 -0.10752197 72.12548828 -0.11331177 C77.40219288 -0.08167858 77.40219288 -0.08167858 79.63050842 2.14663696 C79.81832751 4.67655835 79.88240138 7.09556986 79.8575592 9.62564087 C79.85780027 10.40894461 79.85804134 11.19224834 79.85828972 11.99928856 C79.85679415 14.54070681 79.84155046 17.08183353 79.82582092 19.62319946 C79.82288124 21.18984842 79.82084034 22.75649933 79.81971741 24.32315063 C79.80922143 30.13934265 79.78129912 35.95549265 79.75550842 41.77163696 C79.71425842 54.76538696 79.67300842 67.75913696 79.63050842 81.14663696 C51.25050842 81.14663696 22.87050842 81.14663696 -6.36949158 81.14663696 C-6.39011658 67.96726196 -6.41074158 54.78788696 -6.43199158 41.20913696 C-6.44109558 37.04167847 -6.45019958 32.87421997 -6.45957947 28.58047485 C-6.46409607 23.50686646 -6.46409607 23.50686646 -6.4649353 21.13465881 C-6.46647485 19.47136671 -6.46999999 17.80807575 -6.47506714 16.14479065 C-6.48234467 13.6311447 -6.48339899 11.11756719 -6.48301697 8.60391235 C-6.48661508 7.85804147 -6.49021318 7.11217058 -6.49392033 6.34369755 C-6.48134423 0.19851325 -6.12515298 0.03748775 0 0 Z " fill="#66D5F2" transform="translate(347.36949157714844,266.8533630371094)"/>
<path d="M0 0 C11.22 0 22.44 0 34 0 C36.875 9.375 36.875 9.375 37.76904297 12.32568359 C38.00768066 13.09219238 38.24631836 13.85870117 38.4921875 14.6484375 C38.73308105 15.43395996 38.97397461 16.21948242 39.22216797 17.02880859 C39.92329277 19.18876061 39.92329277 19.18876061 42 21 C43.90821061 21.35513379 43.90821061 21.35513379 46 21.3125 C47.051875 21.33763672 47.051875 21.33763672 48.125 21.36328125 C48.74375 21.24339844 49.3625 21.12351562 50 21 C52.55212618 17.17181074 52.35783336 15.58026697 52 11 C51.01 7.37 50.02 3.74 49 0 C59.89 0 70.78 0 82 0 C87.41266596 10.69360775 92.57816339 21.4484429 97.5 32.375 C98.15419141 33.82169909 98.80857145 35.26831289 99.46313477 36.71484375 C101.31366843 40.80769112 103.15762656 44.90347437 105 49 C105.72292236 50.60536621 105.72292236 50.60536621 106.46044922 52.24316406 C107.62274785 54.82732516 108.78166218 57.41294382 109.9375 60 C110.26105469 60.7223584 110.58460938 61.4447168 110.91796875 62.18896484 C113 66.87945002 113 66.87945002 113 68 C98.81 68 84.62 68 70 68 C67.77538477 62.06769273 65.70320542 56.15331323 63.80664062 50.1171875 C62.53710508 46.19647655 62.53710508 46.19647655 60 43 C58.08993694 42.6823754 58.08993694 42.6823754 56 42.75 C55.29875 42.74484375 54.5975 42.7396875 53.875 42.734375 C51.7564331 42.84294485 51.7564331 42.84294485 50 45 C49.33461415 51.87565374 50.75291073 57.04697606 53.125 63.49609375 C54 66 54 66 54 68 C39.48 68 24.96 68 10 68 C7.75 54.5 7.75 54.5 7.0078125 50.02929688 C5.96246963 43.73465511 4.90864292 37.44229412 3.8125 31.15625 C3.63235352 30.11146484 3.45220703 29.06667969 3.26660156 27.99023438 C2.9355315 26.07390822 2.59940281 24.15844501 2.25683594 22.24414062 C0.97308097 14.75965838 0.54952609 7.69336524 0 0 Z " fill="#F88087" transform="translate(313,65)"/>
<path d="M0 0 C28.38 0 56.76 0 86 0 C86 16.83 86 33.66 86 51 C57.62 51 29.24 51 0 51 C0 34.17 0 17.34 0 0 Z " fill="#1EA9ED" transform="translate(341,363)"/>
<path d="M0 0 C15.18 0 30.36 0 46 0 C46.06909532 6.67153663 46.12876333 13.34181761 46.16479492 20.01342773 C46.17982508 22.28007224 46.20025482 24.54668794 46.22631836 26.81323242 C46.26295588 30.08259213 46.2797846 33.35156527 46.29296875 36.62109375 C46.30845261 37.62458359 46.32393646 38.62807343 46.33988953 39.66197205 C46.34196876 48.47391226 44.89295757 55.96669477 38.640625 62.4921875 C32.43508047 68.19537842 27.68920227 68.4427505 19.40234375 68.43359375 C13.71896073 67.70930498 9.02498033 65.02498033 5 61 C0.21009757 53.71654625 -0.69623564 47.44075133 -0.48828125 38.8671875 C-0.48120651 37.74933868 -0.47413177 36.63148987 -0.46684265 35.47976685 C-0.43907575 31.94413503 -0.37636784 28.41014511 -0.3125 24.875 C-0.28739438 22.4635647 -0.26458521 20.05210433 -0.24414062 17.640625 C-0.19357895 11.75929054 -0.09568538 5.88146123 0 0 Z " fill="#F76470" transform="translate(203,148)"/>
<path d="M0 0 C15.18 0 30.36 0 46 0 C46.09203473 7.1173521 46.17161602 14.23262372 46.21972656 21.35009766 C46.23979065 23.7691143 46.26704843 26.18808276 46.30175781 28.60693359 C46.35050341 32.09224368 46.37302164 35.57691016 46.390625 39.0625 C46.41127014 40.13677246 46.43191528 41.21104492 46.45318604 42.31787109 C46.4555647 50.35203276 44.83284072 55.53763912 39.75 61.75 C33.1480546 67.15159169 27.74823754 68.73865612 19.125 68.44921875 C13.09842767 67.58289898 9.20536635 64.53398608 5.1875 60.125 C0.05280983 52.78972833 -0.42150156 47.15780181 -0.29296875 38.37890625 C-0.28872391 37.27900864 -0.28447906 36.17911102 -0.28010559 35.04588318 C-0.26338402 31.55116755 -0.22574295 28.05703979 -0.1875 24.5625 C-0.17244478 22.18555523 -0.15875784 19.80860138 -0.14648438 17.43164062 C-0.11606054 11.62068796 -0.05732442 5.81099793 0 0 Z " fill="#FA6571" transform="translate(445,148)"/>
<path d="M0 0 C15.18 0 30.36 0 46 0 C46.11521855 6.93871733 46.21463299 13.87407409 46.2746582 20.81298828 C46.29969708 23.16987395 46.33373841 25.52668279 46.37719727 27.88330078 C46.4383159 31.28437328 46.46631727 34.6844132 46.48828125 38.0859375 C46.51408768 39.12801361 46.5398941 40.17008972 46.56648254 41.2437439 C46.56949751 49.22937755 44.77231417 56.01930086 39.15620422 61.94564819 C32.83285188 67.66432509 27.92388759 68.44869898 19.421875 68.31640625 C13.56350764 67.7747079 10.83158702 65.49082665 6.3125 61.8125 C0.30379429 54.50461468 -0.57263145 47.41598179 -0.390625 38.18359375 C-0.38213531 36.53799217 -0.38213531 36.53799217 -0.37347412 34.85914612 C-0.35123774 31.38480394 -0.30106382 27.91152593 -0.25 24.4375 C-0.2299186 22.06967644 -0.21167072 19.70183658 -0.1953125 17.33398438 C-0.15483106 11.55525837 -0.07651235 5.77880814 0 0 Z " fill="#F8CA88" transform="translate(21,148)"/>
<path d="M0 0 C15.18 0 30.36 0 46 0 C46.11520245 7.08111076 46.21462274 14.15893086 46.2746582 21.24023438 C46.29970084 23.6456203 46.333745 26.05093089 46.37719727 28.45605469 C46.4382988 31.92662206 46.46631363 35.39617772 46.48828125 38.8671875 C46.51408768 39.93113739 46.5398941 40.99508728 46.56648254 42.09127808 C46.56919963 49.43197754 45.06320311 54.83762955 41 61 C38.6484375 63.25390625 38.6484375 63.25390625 36.375 64.5625 C35.61960937 65.01753906 34.86421875 65.47257812 34.0859375 65.94140625 C28.33484763 68.86003051 22.29687584 68.74597135 16 68 C8.9608183 65.27582628 4.25539067 59.68517727 1 53 C0.18611485 49.6219883 -0.12267855 46.49516991 -0.11352539 43.02612305 C-0.11344986 42.06550461 -0.11337433 41.10488617 -0.11329651 40.11515808 C-0.10813522 39.0910231 -0.10297394 38.06688812 -0.09765625 37.01171875 C-0.0962413 35.95338333 -0.09482635 34.89504791 -0.09336853 33.80464172 C-0.08778159 30.43223211 -0.07523144 27.05988946 -0.0625 23.6875 C-0.05748331 21.39778742 -0.0529207 19.10807379 -0.04882812 16.81835938 C-0.03866835 11.21219318 -0.01909025 5.60617134 0 0 Z " fill="#F8C987" transform="translate(263,148)"/>
<path d="M0 0 C15.18 0 30.36 0 46 0 C46.11521855 6.93871733 46.21463299 13.87407409 46.2746582 20.81298828 C46.29969708 23.16987395 46.33373841 25.52668279 46.37719727 27.88330078 C46.4383159 31.28437328 46.46631727 34.6844132 46.48828125 38.0859375 C46.51408768 39.12801361 46.5398941 40.17008972 46.56648254 41.2437439 C46.56949751 49.22937755 44.77231417 56.01930086 39.15620422 61.94564819 C32.8810295 67.62075449 27.93353024 68.51523494 19.484375 68.375 C12.13533331 67.58407175 7.89201689 63.34968438 3.2265625 57.94140625 C-0.64249572 51.81745104 -0.2631214 45.45757107 -0.1953125 38.4765625 C-0.1924826 37.37524994 -0.18965271 36.27393738 -0.18673706 35.13925171 C-0.17557478 31.63438892 -0.15047711 28.12978508 -0.125 24.625 C-0.11496511 22.24349328 -0.10584015 19.86198255 -0.09765625 17.48046875 C-0.07735311 11.65346668 -0.03819607 5.82702198 0 0 Z " fill="#F76470" transform="translate(324,148)"/>
<path d="M0 0 C15.18 0 30.36 0 46 0 C46.09210709 6.95664412 46.17166598 13.91115063 46.21972656 20.86791992 C46.23977282 23.23159985 46.26701719 25.59523061 46.30175781 27.95874023 C46.35058271 31.36714857 46.37303948 34.77489803 46.390625 38.18359375 C46.41127014 39.23083115 46.43191528 40.27806854 46.45318604 41.35704041 C46.45551468 49.06736999 45.07871987 55.33369145 40.03515625 61.33984375 C39.38417969 61.86707031 38.73320312 62.39429688 38.0625 62.9375 C37.41410156 63.48277344 36.76570313 64.02804688 36.09765625 64.58984375 C29.84769427 68.79140106 23.31575658 68.85807544 16 68 C9.19452369 65.4710112 4.78835174 60.28075811 1.3815918 54.03100586 C-0.71260992 48.96430321 -0.37200086 43.77686338 -0.29296875 38.37890625 C-0.28872391 37.27900864 -0.28447906 36.17911102 -0.28010559 35.04588318 C-0.26338402 31.55116755 -0.22574295 28.05703979 -0.1875 24.5625 C-0.17244478 22.18555523 -0.15875784 19.80860138 -0.14648438 17.43164062 C-0.11606054 11.62068796 -0.05732442 5.81099793 0 0 Z " fill="#F8CA88" transform="translate(142,148)"/>
<path d="M0 0 C14.85 0 29.7 0 45 0 C45.06897784 7.13537481 45.12868194 14.26958639 45.16479492 21.4050293 C45.17985409 23.83085049 45.20030562 26.25664458 45.22631836 28.68237305 C45.26282703 32.17503562 45.27975553 35.66733725 45.29296875 39.16015625 C45.30845261 40.23959 45.32393646 41.31902374 45.33988953 42.4311676 C45.34191614 51.55863905 43.3455559 57.35227477 37 64 C30.51274944 68.58854308 23.75005529 68.68734424 16 68 C8.48303136 66.03959456 4.72649857 60.61472511 0.93753052 54.20172119 C-0.18444142 51.56685295 -0.24093424 49.63245327 -0.22705078 46.77246094 C-0.22689972 45.73168396 -0.22674866 44.69090698 -0.22659302 43.61859131 C-0.21627045 42.50179993 -0.20594788 41.38500854 -0.1953125 40.234375 C-0.1924826 39.08584045 -0.18965271 37.93730591 -0.18673706 36.75396729 C-0.17554263 33.08587219 -0.15043904 29.4180213 -0.125 25.75 C-0.11496926 23.26302436 -0.10584358 20.77604489 -0.09765625 18.2890625 C-0.07730737 12.19253856 -0.03815639 6.09654264 0 0 Z " fill="#FACB89" transform="translate(385,148)"/>
<path d="M0 0 C14.85 0 29.7 0 45 0 C45.13823292 7.22394981 45.25753018 14.44325865 45.32958984 21.66748047 C45.35964594 24.12141522 45.40050297 26.57524359 45.45263672 29.02880859 C45.52594056 32.56895279 45.55957011 36.10766923 45.5859375 39.6484375 C45.61690521 40.73426117 45.64787292 41.82008484 45.67977905 42.93881226 C45.68317447 50.73326297 43.75481249 55.81703391 39 62 C34.15822682 66.84177318 29.27117755 68.10141986 22.5625 68.3125 C14.74706047 68.14305958 9.53448926 65.28292156 4 60 C0.69808437 55.33177446 -0.12750101 51.51040978 -0.11352539 45.86425781 C-0.11344986 44.84350159 -0.11337433 43.82274536 -0.11329651 42.77105713 C-0.10813522 41.67613953 -0.10297394 40.58122192 -0.09765625 39.453125 C-0.0962413 38.3267865 -0.09482635 37.200448 -0.09336853 36.03997803 C-0.08777199 32.44329165 -0.0752201 28.84666756 -0.0625 25.25 C-0.05748455 22.81119882 -0.05292172 20.37239666 -0.04882812 17.93359375 C-0.03865469 11.95568587 -0.01907844 5.97791265 0 0 Z " fill="#F96571" transform="translate(82,148)"/>
<path d="M0 0 C10.89 0 21.78 0 33 0 C38.41266596 10.69360775 43.57816339 21.4484429 48.5 32.375 C49.15419141 33.82169909 49.80857145 35.26831289 50.46313477 36.71484375 C52.31366843 40.80769112 54.15762656 44.90347437 56 49 C56.72292236 50.60536621 56.72292236 50.60536621 57.46044922 52.24316406 C58.62274785 54.82732516 59.78166218 57.41294382 60.9375 60 C61.26105469 60.7223584 61.58460938 61.4447168 61.91796875 62.18896484 C64 66.87945002 64 66.87945002 64 68 C49.81 68 35.62 68 21 68 C18.78722022 62.09925393 16.74896162 56.24224259 14.98242188 50.20507812 C13.72829213 46.23163794 12.69337546 44.01761527 9 42 C8.15050781 41.773125 7.30101562 41.54625 6.42578125 41.3125 C4 40 4 40 2.41796875 36.375 C1.98728355 34.92259698 1.5777571 33.46378402 1.1875 32 C0.97158203 31.26265625 0.75566406 30.5253125 0.53320312 29.765625 C-1 24.43105159 -1 24.43105159 -1 22 C-0.34 21.443125 0.32 20.88625 1 20.3125 C3.26521642 18.11446436 3.26521642 18.11446436 3.4375 14.9375 C2.87327125 9.85944125 1.34434803 4.92927612 0 0 Z " fill="#FCE5C7" transform="translate(362,65)"/>
<path d="M0 0 C-3.15450779 6.82100376 -6.86107114 12.97419446 -14 16 C-21.11691943 17.08800817 -28.24913831 17.03004605 -35.43188477 16.81518555 C-36.15127228 16.79989807 -36.87065979 16.7846106 -37.61184692 16.76885986 C-39.60665103 16.71762271 -41.60028147 16.6254792 -43.59350586 16.53100586 C-47.97720802 17.13453857 -49.20634851 18.65911051 -52 22 C-52.61029053 22.62600098 -53.22058105 23.25200195 -53.84936523 23.89697266 C-54.41341064 24.4801123 -54.97745605 25.06325195 -55.55859375 25.6640625 C-56.85142346 26.98451115 -58.14439496 28.30482098 -59.4375 29.625 C-60.08009766 30.29273438 -60.72269531 30.96046875 -61.38476562 31.6484375 C-65.06008438 35.37972558 -68.23914447 37.71250185 -73 40 C-74.41909682 43.35017285 -74.41909682 43.35017285 -74 47 C-71.99228019 49.73961767 -70.38696002 51.65963343 -66.99438477 52.4921875 C-64.714596 52.71467992 -62.47785672 52.79522153 -60.1875 52.8125 C-59.00510742 52.85020508 -59.00510742 52.85020508 -57.79882812 52.88867188 C-55.86641627 52.94722981 -53.93315673 52.97655488 -52 53 C-56.00390625 57.78515625 -56.00390625 57.78515625 -58 60 C-58.42466553 60.56875854 -58.84933105 61.13751709 -59.28686523 61.72351074 C-61.82025333 64.7699725 -63.77744792 66.72205259 -67.71409607 67.61705017 C-70.99583341 67.80895316 -74.21034119 67.78726645 -77.49609375 67.68359375 C-79.27911644 67.6687368 -79.27911644 67.6687368 -81.09815979 67.65357971 C-84.8792169 67.61452508 -88.65732658 67.52670834 -92.4375 67.4375 C-95.00711941 67.40237512 -97.57678452 67.3704382 -100.14648438 67.34179688 C-106.43198812 67.2647918 -112.71578347 67.14778788 -119 67 C-115.04883959 62.26531159 -110.93097238 57.79333816 -106.55151367 53.45385742 C-105.93776886 52.84157288 -105.32402405 52.22928833 -104.69168091 51.59844971 C-103.37185467 50.28240116 -102.05087549 48.96750801 -100.72884178 47.65367699 C-98.63797567 45.57565999 -96.55032471 43.49445993 -94.4634552 41.41242981 C-90.04094617 37.00129597 -85.6145008 32.59412529 -81.1875 28.1875 C-76.03876406 23.0623592 -70.8916512 17.93560999 -65.74871254 12.80465126 C-63.68941702 10.75184939 -61.62714043 8.70207433 -59.56474304 6.65238953 C-58.31018659 5.4014634 -57.05576908 4.1503979 -55.80151367 2.89916992 C-54.9374012 2.04280693 -54.9374012 2.04280693 -54.05583191 1.16914368 C-51.17072427 -1.64427314 -51.17072427 -1.64427314 -49 -5 C-34.04040377 -9.02522094 -13.85190971 -6.92595486 0 0 Z " fill="#9AE4FA" transform="translate(223,304)"/>
<path d="M0 0 C11.22 0 22.44 0 34 0 C33.31946328 9.52751406 32.39936377 18.48834695 30.6875 27.8125 C30.23825695 30.33309729 29.79036789 32.85393624 29.34375 35.375 C29.00730469 37.26605469 29.00730469 37.26605469 28.6640625 39.1953125 C26.99164344 48.77728995 25.51696946 58.39252673 24 68 C9.48 68 -5.04 68 -20 68 C-18.03536364 60.14145454 -16.00734713 52.41386982 -13.625 44.6875 C-13.31900879 43.6869458 -13.01301758 42.6863916 -12.69775391 41.65551758 C-11.00056629 36.13765748 -9.235815 30.65217191 -7.375 25.1875 C-4.55432577 16.8847845 -2.29570493 8.46131246 0 0 Z " fill="#FBE4C7" transform="translate(165,65)"/>
<path d="M0 0 C11.22 0 22.44 0 34 0 C34 22.44 34 44.88 34 68 C19.48 68 4.96 68 -10 68 C-7.49927957 47.24402047 -4.46317636 26.61612778 -1 6 C-0.67 4.02 -0.34 2.04 0 0 Z " fill="#F98088" transform="translate(214,65)"/>
<path d="M0 0 C11.22 0 22.44 0 34 0 C35.75 11.375 35.75 11.375 36.33837891 15.20605469 C37.24725848 21.12285208 38.16088167 27.03883365 39.0859375 32.953125 C39.34745605 34.63269287 39.34745605 34.63269287 39.61425781 36.34619141 C39.94242666 38.45293501 40.27235607 40.55940555 40.60449219 42.66552734 C41.91477614 51.09996527 42.93964539 59.51716316 44 68 C29.48 68 14.96 68 0 68 C0 45.56 0 23.12 0 0 Z " fill="#FCE5C7" transform="translate(264,65)"/>
<path d="M0 0 C1.39120471 0.00015906 2.78241534 0.00585033 4.17358398 0.01586914 C4.90463852 0.01728409 5.63569305 0.01869904 6.38890076 0.02015686 C8.73253406 0.02577131 11.07607313 0.03832617 13.41967773 0.05102539 C15.00496282 0.05603853 16.59024939 0.06060176 18.17553711 0.06469727 C22.06945383 0.07574542 25.96329979 0.09301967 29.85717773 0.11352539 C25.70861016 14.83866085 21.36205624 29.49361373 16.85717773 44.11352539 C16.6104834 44.91822266 16.36378906 45.72291992 16.10961914 46.55200195 C15.44501691 48.71924346 14.7769132 50.88536545 14.10717773 53.05102539 C13.74108398 54.23567383 13.37499023 55.42032227 12.99780273 56.64086914 C11.72908449 60.50350789 10.28472768 64.30672552 8.85717773 68.11352539 C-5.33282227 68.11352539 -19.52282227 68.11352539 -34.14282227 68.11352539 C-31.65716517 61.89938265 -29.16375306 55.80110677 -26.34985352 49.74633789 C-26.00206345 48.99228668 -25.65427338 48.23823547 -25.29594421 47.46133423 C-24.18461696 45.05270194 -23.06999979 42.64560877 -21.95532227 40.23852539 C-20.42928338 36.93443674 -18.9050046 33.629538 -17.38110352 30.32446289 C-17.01087067 29.5219812 -16.64063782 28.71949951 -16.25918579 27.8927002 C-12.97384665 20.76430587 -9.74411753 13.61208043 -6.56787109 6.43432617 C-3.76503774 0.13600113 -3.76503774 0.13600113 0 0 Z " fill="#F97F87" transform="translate(120.142822265625,64.886474609375)"/>
<path d="M0 0 C4.3415346 -0.12381526 8.68212837 -0.21443558 13.02490234 -0.2746582 C14.50132146 -0.29976737 15.97761668 -0.33386255 17.45361328 -0.37719727 C19.5787614 -0.438018 21.70226394 -0.46624209 23.828125 -0.48828125 C25.1059082 -0.51446533 26.38369141 -0.54064941 27.70019531 -0.56762695 C31 0 31 0 33.26757812 2.24267578 C34.12512695 3.60755127 34.12512695 3.60755127 35 5 C35.49016602 5.74789795 35.98033203 6.4957959 36.48535156 7.26635742 C36.9490918 8.03826416 37.41283203 8.8101709 37.890625 9.60546875 C38.4273584 10.49371338 38.9640918 11.38195801 39.51708984 12.29711914 C40.0889502 13.25094482 40.66081055 14.20477051 41.25 15.1875 C42.49667328 17.25304044 43.74409911 19.31812682 44.9921875 21.3828125 C45.64413086 22.46208008 46.29607422 23.54134766 46.96777344 24.65332031 C49.02833219 28.04665758 51.10708779 31.42834395 53.1953125 34.8046875 C53.54468872 35.36998672 53.89406494 35.93528595 54.25402832 36.51771545 C55.9391898 39.24350954 57.62670756 41.96780739 59.31738281 44.69018555 C64.06596737 52.37326802 68.51120586 60.14461025 73 68 C58.81 68 44.62 68 30 68 C25.03059614 57.14577577 20.06413782 46.29030783 15.10876465 35.4296875 C14.38023563 33.83322801 13.6514827 32.23687069 12.92248535 30.640625 C10.91928409 26.25431699 8.91973258 21.86638715 6.92633057 17.47561646 C6.30928099 16.11798136 5.69091505 14.76094377 5.07122803 13.4045105 C4.21060146 11.51996093 3.35469566 9.63333895 2.5 7.74609375 C2.0153125 6.68060303 1.530625 5.6151123 1.03125 4.51733398 C0 2 0 2 0 0 Z " fill="#F98088" transform="translate(412,65)"/>
<path d="M0 0 C1.46604895 0.04016572 2.93220334 0.07666116 4.3984375 0.109375 C7.97616254 0.19716433 11.5499086 0.33498602 15.125 0.5 C12.84976594 8.1174503 9.59450031 15.16113338 6.17141724 22.31713867 C4.48772437 25.83857961 2.82144014 29.36821743 1.15625 32.8984375 C0.81900406 33.6130011 0.48175812 34.3275647 0.1342926 35.06378174 C-5.06776602 46.12048783 -9.95188989 57.31663877 -14.875 68.5 C-29.065 68.5 -43.255 68.5 -57.875 68.5 C-54.07518296 61.53366876 -50.27528724 54.75752162 -46.0625 48.0625 C-42.14846573 41.80108845 -38.26990647 35.52110206 -34.4609375 29.1953125 C-34.08562393 28.57291183 -33.71031036 27.95051117 -33.32362366 27.30924988 C-31.82991088 24.83167748 -30.33624816 22.35412645 -28.85116577 19.87136841 C-27.15906079 17.04296999 -25.4492991 14.23400277 -23.69238281 11.44482422 C-21.87878235 8.60827519 -21.87878235 8.60827519 -20.59667969 5.91845703 C-16.18391737 -1.99341966 -7.93832507 -0.37733742 0 0 Z " fill="#FCE5C7" transform="translate(84.875,64.5)"/>
<path d="M0 0 C3.47033183 2.87120416 6.78271205 5.84898577 10 9 C10.73863281 9.68578125 11.47726562 10.3715625 12.23828125 11.078125 C14 13 14 13 14.5625 15.9375 C13.79395747 20.12178713 12.46194162 21.56927503 9 24 C5.6875 24.3125 5.6875 24.3125 2 23 C0.00582382 21.21691905 -1.76225069 19.28479472 -3.58203125 17.32421875 C-11.41724482 9.79279375 -21.78325268 4.44356291 -32 1 C-33.15371094 0.608125 -34.30742187 0.21625 -35.49609375 -0.1875 C-57.18546619 -6.58109188 -79.47046151 -3.91253519 -99.22265625 6.78125 C-105.93914266 10.6104507 -112.22698962 15.13579944 -117.61328125 20.69921875 C-120 23 -120 23 -123.5 24.125 C-127 24 -127 24 -129.9375 21.9375 C-132.37588465 18.46464914 -132.52045366 17.15322022 -132 13 C-119.69083566 -4.4773462 -95.45763128 -14.2572848 -75.28515625 -18.58203125 C-48.77741121 -21.9545981 -21.45005227 -16.2024985 0 0 Z " fill="#010303" transform="translate(250,302)"/>
<path d="M0 0 C0.98130386 -0.00619858 1.96260773 -0.01239716 2.97364807 -0.01878357 C5.04728199 -0.02588184 7.12097289 -0.02270762 9.19458008 -0.01000977 C12.36451369 0.00384335 15.53148818 -0.03020008 18.70117188 -0.06835938 C20.71744864 -0.06931071 22.73372909 -0.06745099 24.75 -0.0625 C25.69596542 -0.07575821 26.64193085 -0.08901642 27.61656189 -0.10267639 C32.01109274 -0.0406278 34.31429973 0.14762681 38.0390625 2.63500977 C40.3512748 6.19798886 40.6506157 8.97690951 40.5703125 13.09765625 C40.57272446 13.81119263 40.57513641 14.524729 40.57762146 15.2598877 C40.5766456 16.76267069 40.5633139 18.26549079 40.53833008 19.76806641 C40.50399967 22.06016912 40.51768387 24.34841597 40.53710938 26.640625 C40.53021043 28.10548506 40.52053758 29.57033522 40.5078125 31.03515625 C40.51277237 31.71549927 40.51773224 32.39584229 40.52284241 33.09680176 C40.44413684 36.29827885 39.9250213 38.60093917 38.55053711 41.49780273 C34.50544994 44.70487895 30.65083448 44.26374183 25.62890625 44.1953125 C24.12009888 44.19893044 24.12009888 44.19893044 22.58081055 44.20262146 C20.45585179 44.20164272 18.33086763 44.18824279 16.20605469 44.16333008 C12.9528952 44.12902739 9.70245242 44.14266872 6.44921875 44.16210938 C4.38410302 44.15521084 2.3189943 44.14553839 0.25390625 44.1328125 C-0.71909424 44.13777237 -1.69209473 44.14273224 -2.69458008 44.14784241 C-9.26776877 44.03316748 -9.26776877 44.03316748 -12.66992188 42.02514648 C-14.60033302 38.60721916 -14.63212014 35.48417107 -14.58984375 31.66015625 C-14.59367065 30.89844116 -14.59749756 30.13672607 -14.60144043 29.35192871 C-14.60415688 27.74485957 -14.59681419 26.13774601 -14.58007812 24.53076172 C-14.55866161 22.07419038 -14.57988553 19.62054314 -14.60546875 17.1640625 C-14.60282542 15.60025398 -14.59770033 14.03644727 -14.58984375 12.47265625 C-14.59794067 11.74026733 -14.6060376 11.00787842 -14.61437988 10.2532959 C-14.55645216 7.09466167 -14.22943893 4.86548183 -12.65405273 2.10766602 C-8.5833983 -0.30960813 -4.65171607 -0.02433772 0 0 Z " fill="#020302" transform="translate(371.05859375,288.43359375)"/>
<path d="M0 0 C0 19.8 0 39.6 0 60 C-19.8 60 -39.6 60 -60 60 C-56.20834147 55.57639838 -52.55902163 51.43314376 -48.46948242 47.34008789 C-47.95327332 46.82212646 -47.43706421 46.30416504 -46.9052124 45.77050781 C-45.22444461 44.08539271 -43.54011073 42.40389755 -41.85546875 40.72265625 C-40.6780207 39.54453373 -39.50072105 38.36626286 -38.32356262 37.18785095 C-35.87007913 34.7329007 -33.41481459 32.27974982 -30.95825195 29.82788086 C-27.80279266 26.67815616 -24.65189484 23.5239122 -21.50228405 20.36834049 C-19.07897374 17.94142906 -16.65330227 15.51688894 -14.22689247 13.09307671 C-13.06308821 11.92994101 -11.90003042 10.76605794 -10.7377224 9.60142708 C-9.12206237 7.98324386 -7.50326051 6.36827277 -5.88354492 4.75415039 C-4.96232346 3.83372452 -4.04110199 2.91329865 -3.09196472 1.96498108 C-1 0 -1 0 0 0 Z " fill="#9BE5FA" transform="translate(297,311)"/>
<path d="M0 0 C1.10073601 -0.01270432 1.10073601 -0.01270432 2.22370911 -0.02566528 C4.64549163 -0.04903283 7.06663874 -0.05005756 9.48852539 -0.04882812 C11.17477167 -0.05592981 12.86101552 -0.06362882 14.54725647 -0.07189941 C18.08040078 -0.08534358 21.61332165 -0.0869133 25.14648438 -0.08105469 C29.67067137 -0.07515813 34.1937854 -0.10574769 38.71776485 -0.14617157 C42.19997416 -0.172041 45.68192484 -0.17492672 49.164217 -0.17127991 C50.83197286 -0.17297184 52.49974057 -0.18262149 54.16740227 -0.20042419 C56.50165162 -0.2226011 58.83372584 -0.21292147 61.16796875 -0.1953125 C61.85436432 -0.20857574 62.54075989 -0.22183899 63.24795532 -0.23550415 C67.03853777 -0.16917574 68.58287521 0.36725125 71.58106995 2.76696777 C73.64868164 5.41992188 73.64868164 5.41992188 74.21118164 8.48242188 C73.50420809 12.17439486 72.62960769 13.15710527 69.64868164 15.41992188 C66.99402861 15.81996294 64.75120446 15.97780166 62.09790039 15.95336914 C60.96549423 15.9662925 60.96549423 15.9662925 59.81021118 15.97947693 C57.31851776 16.00215197 54.82794754 15.99539622 52.33618164 15.98632812 C50.60269842 15.99156281 48.86921806 15.99783872 47.13574219 16.00511169 C43.50417672 16.0155185 39.87300303 16.0109502 36.24145508 15.99633789 C31.5871029 15.97914326 26.93398441 16.00265138 22.2797699 16.03782749 C18.70064104 16.05978458 15.12180821 16.0583643 11.54263306 16.05006218 C9.82661587 16.04924184 8.11057712 16.05612101 6.3946228 16.07083321 C3.99546376 16.0882505 1.59853216 16.07376379 -0.80053711 16.05102539 C-1.86357559 16.06856369 -1.86357559 16.06856369 -2.9480896 16.0864563 C-6.6212715 16.01560456 -8.10276048 15.65248767 -10.82324219 13.10704041 C-12.35131836 10.41992188 -12.35131836 10.41992188 -12.35131836 6.79492188 C-10.40521949 0.22683818 -6.22579347 -0.0265032 0 0 Z " fill="#020506" transform="translate(160.351318359375,340.580078125)"/>
<path d="M0 0 C15.18 0 30.36 0 46 0 C41.77341575 4.93101496 37.58533646 9.68019995 33.0625 14.3125 C32.48048828 14.93189453 31.89847656 15.55128906 31.29882812 16.18945312 C27.33997026 20.2272251 24.51138714 21.7986262 19 23 C16.74593106 25.17634243 16.0814245 26.66759646 15.3359375 29.7109375 C13.55392721 34.09822598 10.82715396 36.6495381 7.4375 39.875 C6.83486328 40.46796875 6.23222656 41.0609375 5.61132812 41.671875 C1.16851779 46 1.16851779 46 0 46 C0 30.82 0 15.64 0 0 Z " fill="#9BE5FA" transform="translate(341,268)"/>
<path d="M0 0 C1.18726685 0.01131958 2.37453369 0.02263916 3.59777832 0.03430176 C7.36894932 0.07888471 11.13623932 0.17922776 14.90625 0.28125 C17.47129904 0.32139972 20.03640802 0.35789784 22.6015625 0.390625 C28.87110321 0.4785612 35.13839933 0.61222156 41.40625 0.78125 C36.57407876 6.4797265 31.56524319 11.93553753 26.34375 17.28125 C25.55419922 18.1165625 24.76464844 18.951875 23.95117188 19.8125 C23.18224609 20.59625 22.41332031 21.38 21.62109375 22.1875 C20.93136475 22.90228516 20.24163574 23.61707031 19.53100586 24.35351562 C17.40625 25.78125 17.40625 25.78125 14.87329102 25.58740234 C12.10543849 24.68295415 9.36445803 23.71313591 6.63037109 22.71142578 C-4.27402168 18.76382014 -15.10272875 17.07313996 -26.59375 15.78125 C-25.21366361 14.12514634 -23.82510951 12.4755864 -22.40197754 10.85632324 C-21.21268138 9.49151899 -20.05841135 8.09524457 -18.94470215 6.66809082 C-13.25098937 -0.00115229 -8.47093521 -0.30684202 0 0 Z " fill="#99E3F8" transform="translate(218.59375,267.21875)"/>
<path d="M0 0 C15.18 0 30.36 0 46 0 C46.09203473 7.1173521 46.17161602 14.23262372 46.21972656 21.35009766 C46.23979065 23.7691143 46.26704843 26.18808276 46.30175781 28.60693359 C46.35050341 32.09224368 46.37302164 35.57691016 46.390625 39.0625 C46.41127014 40.13677246 46.43191528 41.21104492 46.45318604 42.31787109 C46.4555647 50.35203276 44.83284072 55.53763912 39.75 61.75 C34.10860456 66.36568718 29.31930428 68.60994202 22 68 C22.39832031 67.46632813 22.79664063 66.93265625 23.20703125 66.3828125 C23.73683594 65.63773437 24.26664062 64.89265625 24.8125 64.125 C25.59560547 63.04605469 25.59560547 63.04605469 26.39453125 61.9453125 C30.67330811 54.09568293 31.42952187 46.32776083 31.29296875 37.5234375 C31.28660149 35.94654648 31.28660149 35.94654648 31.28010559 34.33779907 C31.26346139 31.01659317 31.22583614 27.69601906 31.1875 24.375 C31.17243473 22.10808175 31.15874957 19.84115388 31.14648438 17.57421875 C31.1161707 12.0490465 31.05742147 6.52522115 31 1 C21.1 1 11.2 1 1 1 C1 17.17 1 33.34 1 50 C0.67 50 0.34 50 0 50 C0 33.5 0 17 0 0 Z " fill="#F24857" transform="translate(445,148)"/>
<path d="M0 0 C2.08153935 -0.13536022 4.16561206 -0.23215465 6.25 -0.3125 C7.41015625 -0.37050781 8.5703125 -0.42851563 9.765625 -0.48828125 C13 0 13 0 15.03125 1.8828125 C15.6809375 2.91148438 16.330625 3.94015625 17 5 C17.44827148 5.70906494 17.89654297 6.41812988 18.35839844 7.14868164 C20.01882903 9.81103236 21.63657551 12.49641343 23.25 15.1875 C24.49667328 17.25304044 25.74409911 19.31812682 26.9921875 21.3828125 C27.64413086 22.46208008 28.29607422 23.54134766 28.96777344 24.65332031 C31.02833159 28.0466566 33.10697464 31.42841444 35.1953125 34.8046875 C41.97949275 45.77339176 48.72475966 56.73089234 55 68 C50.18187951 68.65713087 45.79826276 68.89468017 41 68 C37.40854181 64.99925219 35.66733015 61.28366444 33.625 57.125 C32.37652654 54.82528506 31.12512722 52.52715656 29.87109375 50.23046875 C29.23384212 49.02542352 28.59696325 47.82018109 27.96044922 46.61474609 C24.81068822 40.72406541 21.22645522 35.09991184 17.6875 29.4375 C16.35732796 27.28170948 15.02787975 25.12547214 13.69921875 22.96875 C10.07589872 17.11174877 6.43038131 11.26851991 2.7409668 5.45288086 C0 1.10727019 0 1.10727019 0 0 Z " fill="#F86570" transform="translate(430,65)"/>
<path d="M0 0 C9.58494583 0.22337797 18.01590099 2.94518089 27 6 C23.86790852 12.79169309 20.1214542 19.02074943 13 22 C2.45816834 23.56917209 -8.40925357 22.73416123 -19 22 C-14.41710948 16.47148342 -9.4938077 11.43547003 -4.328125 6.45507812 C-2.84969882 5.00560729 -1.42018712 3.50657832 0 2 C0 1.34 0 0.68 0 0 Z " fill="#68D9F6" transform="translate(196,298)"/>
<path d="M0 0 C2.08344475 0.00850584 4.16414069 -0.02025601 6.24731445 -0.05200195 C8.22634766 -0.05103516 8.22634766 -0.05103516 10.24536133 -0.05004883 C11.4505542 -0.05190186 12.65574707 -0.05375488 13.89746094 -0.05566406 C17.77090517 0.54080862 19.43517605 1.66707942 22.15551758 4.44604492 C22.78051758 7.38354492 22.78051758 7.38354492 22.15551758 10.44604492 C19.51984376 13.78220861 18.03058913 15.27703832 13.80566406 16.09301758 C11.93503296 16.10147705 11.93503296 16.10147705 10.02661133 16.11010742 C9.01933739 16.11728287 9.01933739 16.11728287 7.99171448 16.12460327 C6.578925 16.12799108 5.16605593 16.11886659 3.75341797 16.09790039 C1.59465705 16.0710653 -0.55892699 16.09769578 -2.7175293 16.12963867 C-4.09449385 16.12633518 -5.47145519 16.11993018 -6.84838867 16.11010742 C-8.09434814 16.10446777 -9.34030762 16.09882813 -10.62402344 16.09301758 C-13.84448242 15.44604492 -13.84448242 15.44604492 -16.28173828 13.13110352 C-17.84448242 10.44604492 -17.84448242 10.44604492 -17.84448242 6.82104492 C-15.32479755 -1.68289154 -7.47847697 -0.04667993 0 0 Z " fill="#010203" transform="translate(188.844482421875,319.553955078125)"/>
<path d="M0 0 C0.8971875 1.175625 0.8971875 1.175625 1.8125 2.375 C3.93408929 4.92090715 5.52969332 6.75340689 8.90112305 7.31884766 C9.94586792 7.365979 9.94586792 7.365979 11.01171875 7.4140625 C12.14770508 7.47207031 12.14770508 7.47207031 13.30664062 7.53125 C14.48516602 7.57765625 14.48516602 7.57765625 15.6875 7.625 C16.48478516 7.66367187 17.28207031 7.70234375 18.10351562 7.7421875 C20.06863475 7.83632494 22.0342854 7.91924632 24 8 C19.99609375 12.78515625 19.99609375 12.78515625 18 15 C17.40650757 15.88739868 17.40650757 15.88739868 16.80102539 16.79272461 C14.00587191 20.40941573 12.02639887 21.83808503 7.43579102 22.56225586 C3.13837666 22.77588402 -1.14152427 22.61140147 -5.4375 22.4375 C-6.94719338 22.40234564 -8.45696543 22.37041385 -9.96679688 22.34179688 C-13.64617977 22.26508343 -17.32258435 22.14453003 -21 22 C-16.61557474 16.74825074 -11.99157907 11.86777527 -7.125 7.0625 C-6.43664062 6.37865234 -5.74828125 5.69480469 -5.0390625 4.99023438 C-3.36166489 3.32448536 -1.68196209 1.6611378 0 0 Z " fill="#69DAF7" transform="translate(147,349)"/>
<path d="M0 0 C1.01835937 0.20882813 2.03671875 0.41765625 3.0859375 0.6328125 C-1.7106726 6.36102745 -6.7565542 11.78862024 -11.9765625 17.1328125 C-12.76611328 17.968125 -13.55566406 18.8034375 -14.36914062 19.6640625 C-15.13806641 20.4478125 -15.90699219 21.2315625 -16.69921875 22.0390625 C-17.38894775 22.75384766 -18.07867676 23.46863281 -18.78930664 24.20507812 C-20.9140625 25.6328125 -20.9140625 25.6328125 -23.47045898 25.45507812 C-26.44853665 24.45296347 -29.14619787 23.11329823 -31.9140625 21.6328125 C-31.9140625 15.5910133 -25.53731469 11.06504387 -21.54736328 6.92431641 C-14.58978404 0.26610494 -9.41218141 -1.2964901 0 0 Z " fill="#9AE4F9" transform="translate(256.9140625,267.3671875)"/>
<path d="M0 0 C-1.42200196 1.65900229 -2.84466201 3.31744471 -4.27050781 4.97314453 C-5.37581272 6.26849199 -6.47012081 7.5733578 -7.54980469 8.89013672 C-17.64547473 21.08773425 -17.64547473 21.08773425 -24.46875 21.90234375 C-28.3821278 22.01956474 -32.14120686 21.63143888 -36 21 C-34.57799804 19.34099771 -33.15533799 17.68255529 -31.72949219 16.02685547 C-30.62418728 14.73150801 -29.52987919 13.4266422 -28.45019531 12.10986328 C-19.74980649 1.59804576 -13.72683696 -2.24620968 0 0 Z " fill="#9AE5FB" transform="translate(414,268)"/>
<path d="M0 0 C7.92 0 15.84 0 24 0 C24 4.29 24 8.58 24 13 C16.08 13 8.16 13 0 13 C0 8.71 0 4.42 0 0 Z " fill="#F7C987" transform="translate(372,304)"/>
<path d="M0 0 C3.12365032 0.74723873 5.90361432 1.5502782 8.8046875 2.91015625 C6.12596094 9.21664392 0.79323349 15.49241285 -5.1953125 18.91015625 C-10.80289853 20.29638396 -16.52866336 19.63527249 -22.1953125 18.91015625 C-20.24231211 16.52315577 -18.24626127 14.2127084 -16.1953125 11.91015625 C-15.75541992 11.40677734 -15.31552734 10.90339844 -14.86230469 10.38476562 C-13.37373797 8.70151714 -11.85130287 7.05483879 -10.3203125 5.41015625 C-9.83916992 4.8574707 -9.35802734 4.30478516 -8.86230469 3.73535156 C-5.97012497 0.70115373 -4.0998256 -0.46912728 0 0 Z " fill="#9AE5FA" transform="translate(214.1953125,301.08984375)"/>
<path d="M0 0 C-4.35732883 5.32562413 -9.08326398 10.1446153 -14.03613281 14.91113281 C-15.39372661 16.23793053 -16.70148106 17.61533337 -18 19 C-18 19.66 -18 20.32 -18 21 C-21.96 20.01 -25.92 19.02 -30 18 C-30 12.50021896 -25.06760187 9.00413748 -21.41967773 5.21850586 C-14.58677948 -1.28775824 -9.12025303 -1.74643143 0 0 Z " fill="#68D8F5" transform="translate(243,268)"/>
<path d="M0 0 C0.268125 0.5775 0.53625 1.155 0.8125 1.75 C1.204375 2.4925 1.59625 3.235 2 4 C2.34675781 4.72703125 2.69351563 5.4540625 3.05078125 6.203125 C6.2527097 9.15480253 9.98444736 8.67848634 14.1875 8.75 C15.03248047 8.77964844 15.87746094 8.80929687 16.74804688 8.83984375 C18.83151822 8.9104699 20.91576506 8.95750795 23 9 C19.02199601 14.80139522 19.02199601 14.80139522 14.49487305 15.68115234 C13.18043213 15.64973145 11.86599121 15.61831055 10.51171875 15.5859375 C9.4569207 15.57320297 9.4569207 15.57320297 8.3808136 15.56021118 C6.14810955 15.52678324 3.91910021 15.45154502 1.6875 15.375 C0.1686722 15.34488573 -1.35021259 15.31751245 -2.86914062 15.29296875 C-6.58061534 15.22703363 -10.28994673 15.1235945 -14 15 C-10.66883385 11.04625813 -7.31571444 7.18958143 -3.625 3.5625 C-2.93664062 2.88316406 -2.24828125 2.20382812 -1.5390625 1.50390625 C-1.03117188 1.00761719 -0.52328125 0.51132812 0 0 Z " fill="#69DAF7" transform="translate(170,326)"/>
<path d="M0 0 C2.08304855 12.72974112 2.08304855 12.72974112 -1.35791016 18.13183594 C-5.07074087 22.54180818 -9.35577455 26.57580585 -14 30 C-14.33 30 -14.66 30 -15 30 C-17.08304855 17.27025888 -17.08304855 17.27025888 -13.64208984 11.86816406 C-3.65008047 0 -3.65008047 0 0 0 Z " fill="#9AE5FB" transform="translate(356,311)"/>
<path d="M0 0 C-1.40206125 1.67563418 -2.81326949 3.3443281 -4.265625 4.9765625 C-6.01670757 6.93977453 -6.01670757 6.93977453 -7.359375 9.0234375 C-9.53554628 11.88989967 -11.28723538 13.73897501 -14.97363281 14.30078125 C-20.00009338 14.60581137 -24.98228743 14.35558593 -30 14 C-28.59793875 12.32436582 -27.18673051 10.6556719 -25.734375 9.0234375 C-23.98329243 7.06022547 -23.98329243 7.06022547 -22.640625 4.9765625 C-17.03324994 -2.40949605 -8.3678126 -0.59299459 0 0 Z " fill="#9BE5FA" transform="translate(171,357)"/>
<path d="M0 0 C0.94746094 0.24363281 0.94746094 0.24363281 1.9140625 0.4921875 C-0.07748993 2.83324081 -2.07637346 5.16665075 -4.0859375 7.4921875 C-4.62395996 8.11593262 -5.16198242 8.73967773 -5.71630859 9.38232422 C-15.82657498 20.88460573 -15.82657498 20.88460573 -21.44140625 22.39453125 C-24.13592407 22.3701307 -26.48077294 22.16208696 -29.0859375 21.4921875 C-27.09438507 19.15113419 -25.09550154 16.81772425 -23.0859375 14.4921875 C-22.27890381 13.55656982 -22.27890381 13.55656982 -21.45556641 12.60205078 C-9.23265897 -1.30374723 -9.23265897 -1.30374723 0 0 Z " fill="#6ADBF9" transform="translate(396.0859375,267.5078125)"/>
<path d="M0 0 C1.02119373 3.97130893 1.08793604 7.02926297 0 11 C-3.79638876 16.29801682 -8.90530204 20.95465509 -14 25 C-14.33 25 -14.66 25 -15 25 C-16.02119373 21.02869107 -16.08793604 17.97073703 -15 14 C-12.45977264 10.45500813 -4.63111196 0 0 0 Z " fill="#6ADBF9" transform="translate(356,300)"/>
<path d="M0 0 C0 5.61 0 11.22 0 17 C-5.61 17 -11.22 17 -17 17 C-2.95652174 0 -2.95652174 0 0 0 Z " fill="#68DAF8" transform="translate(297,354)"/>
<path d="M0 0 C0.78826172 0.02707031 1.57652344 0.05414063 2.38867188 0.08203125 C4.32280157 0.15236324 6.25551304 0.25997542 8.1875 0.375 C4.46477697 6.0597995 4.46477697 6.0597995 1.18115234 6.87011719 C-1.11258525 6.96477776 -3.33437731 6.8997641 -5.625 6.75 C-6.80739258 6.70939453 -6.80739258 6.70939453 -8.01367188 6.66796875 C-9.94780157 6.59763676 -11.88051304 6.49002458 -13.8125 6.375 C-9.80097991 0.24919176 -7.14278907 -0.46700549 0 0 Z " fill="#99E3F8" transform="translate(184.8125,334.625)"/>
</svg>
